%TF.GenerationSoftware,KiCad,Pcbnew,7.0.2*%
%TF.CreationDate,2023-09-09T23:31:49+02:00*%
%TF.ProjectId,Husvagn,48757376-6167-46e2-9e6b-696361645f70,rev?*%
%TF.SameCoordinates,Original*%
%TF.FileFunction,Soldermask,Top*%
%TF.FilePolarity,Negative*%
%FSLAX46Y46*%
G04 Gerber Fmt 4.6, Leading zero omitted, Abs format (unit mm)*
G04 Created by KiCad (PCBNEW 7.0.2) date 2023-09-09 23:31:49*
%MOMM*%
%LPD*%
G01*
G04 APERTURE LIST*
G04 Aperture macros list*
%AMRoundRect*
0 Rectangle with rounded corners*
0 $1 Rounding radius*
0 $2 $3 $4 $5 $6 $7 $8 $9 X,Y pos of 4 corners*
0 Add a 4 corners polygon primitive as box body*
4,1,4,$2,$3,$4,$5,$6,$7,$8,$9,$2,$3,0*
0 Add four circle primitives for the rounded corners*
1,1,$1+$1,$2,$3*
1,1,$1+$1,$4,$5*
1,1,$1+$1,$6,$7*
1,1,$1+$1,$8,$9*
0 Add four rect primitives between the rounded corners*
20,1,$1+$1,$2,$3,$4,$5,0*
20,1,$1+$1,$4,$5,$6,$7,0*
20,1,$1+$1,$6,$7,$8,$9,0*
20,1,$1+$1,$8,$9,$2,$3,0*%
G04 Aperture macros list end*
%ADD10RoundRect,0.250000X-0.600000X-0.725000X0.600000X-0.725000X0.600000X0.725000X-0.600000X0.725000X0*%
%ADD11O,1.700000X1.950000*%
%ADD12RoundRect,0.250000X-0.750000X0.600000X-0.750000X-0.600000X0.750000X-0.600000X0.750000X0.600000X0*%
%ADD13O,2.000000X1.700000*%
%ADD14O,1.700000X1.700000*%
%ADD15R,3.500000X1.700000*%
%ADD16R,1.700000X1.700000*%
%ADD17R,2.600000X2.600000*%
%ADD18O,2.600000X2.600000*%
%ADD19RoundRect,0.250000X-0.600000X-0.750000X0.600000X-0.750000X0.600000X0.750000X-0.600000X0.750000X0*%
%ADD20O,1.700000X2.000000*%
%ADD21C,1.600000*%
%ADD22O,1.600000X1.600000*%
G04 APERTURE END LIST*
D10*
%TO.C,Screen3*%
X161156000Y-129413000D03*
D11*
X163656000Y-129413000D03*
X166156000Y-129413000D03*
X168656000Y-129413000D03*
%TD*%
D10*
%TO.C,Screen2*%
X161156000Y-122301000D03*
D11*
X163656000Y-122301000D03*
X166156000Y-122301000D03*
X168656000Y-122301000D03*
%TD*%
D10*
%TO.C,J3*%
X159639000Y-98806000D03*
D11*
X162139000Y-98806000D03*
X164639000Y-98806000D03*
%TD*%
D12*
%TO.C,ScreenSW3*%
X168038000Y-106192000D03*
D13*
X168038000Y-108692000D03*
%TD*%
D14*
%TO.C,U1*%
X135594000Y-67233000D03*
D15*
X134694000Y-67233000D03*
D14*
X135594000Y-69773000D03*
D15*
X134694000Y-69773000D03*
D16*
X135594000Y-72313000D03*
D15*
X134694000Y-72313000D03*
D14*
X135594000Y-74853000D03*
D15*
X134694000Y-74853000D03*
D14*
X135594000Y-77393000D03*
D15*
X134694000Y-77393000D03*
D14*
X135594000Y-79933000D03*
D15*
X134694000Y-79933000D03*
D14*
X135594000Y-82473000D03*
D15*
X134694000Y-82473000D03*
D16*
X135594000Y-85013000D03*
D15*
X134694000Y-85013000D03*
D14*
X135594000Y-87553000D03*
D15*
X134694000Y-87553000D03*
D14*
X135594000Y-90093000D03*
D15*
X134694000Y-90093000D03*
D14*
X135594000Y-92633000D03*
D15*
X134694000Y-92633000D03*
D14*
X135594000Y-95173000D03*
D15*
X134694000Y-95173000D03*
D16*
X135594000Y-97713000D03*
D15*
X134694000Y-97713000D03*
D14*
X135594000Y-100253000D03*
D15*
X134694000Y-100253000D03*
D14*
X135594000Y-102793000D03*
D15*
X134694000Y-102793000D03*
D14*
X135594000Y-105333000D03*
D15*
X134694000Y-105333000D03*
D14*
X135594000Y-107873000D03*
D15*
X134694000Y-107873000D03*
D16*
X135594000Y-110413000D03*
D15*
X134694000Y-110413000D03*
D14*
X135594000Y-112953000D03*
D15*
X134694000Y-112953000D03*
D14*
X135594000Y-115493000D03*
D15*
X134694000Y-115493000D03*
D14*
X153374000Y-115493000D03*
D15*
X154274000Y-115493000D03*
D14*
X153374000Y-112953000D03*
D15*
X154274000Y-112953000D03*
D16*
X153374000Y-110413000D03*
D15*
X154274000Y-110413000D03*
D14*
X153374000Y-107873000D03*
D15*
X154274000Y-107873000D03*
D14*
X153374000Y-105333000D03*
D15*
X154274000Y-105333000D03*
D14*
X153374000Y-102793000D03*
D15*
X154274000Y-102793000D03*
D14*
X153374000Y-100253000D03*
D15*
X154274000Y-100253000D03*
D16*
X153374000Y-97713000D03*
D15*
X154274000Y-97713000D03*
D14*
X153374000Y-95173000D03*
D15*
X154274000Y-95173000D03*
D14*
X153374000Y-92633000D03*
D15*
X154274000Y-92633000D03*
D14*
X153374000Y-90093000D03*
D15*
X154274000Y-90093000D03*
D14*
X153374000Y-87553000D03*
D15*
X154274000Y-87553000D03*
D16*
X153374000Y-85013000D03*
D15*
X154274000Y-85013000D03*
D14*
X153374000Y-82473000D03*
D15*
X154274000Y-82473000D03*
D14*
X153374000Y-79933000D03*
D15*
X154274000Y-79933000D03*
D14*
X153374000Y-77393000D03*
D15*
X154274000Y-77393000D03*
D16*
X153374000Y-72313000D03*
D15*
X154274000Y-72313000D03*
D14*
X153374000Y-69773000D03*
D15*
X154274000Y-69773000D03*
D14*
X153374000Y-67233000D03*
D15*
X154274000Y-67233000D03*
%TD*%
D10*
%TO.C,J1*%
X159639000Y-91440000D03*
D11*
X162139000Y-91440000D03*
X164639000Y-91440000D03*
%TD*%
D17*
%TO.C,D1*%
X168783000Y-71628000D03*
D18*
X168783000Y-86868000D03*
%TD*%
D11*
%TO.C,Screen1*%
X168663000Y-115189000D03*
X166163000Y-115189000D03*
X163663000Y-115189000D03*
D10*
X161163000Y-115189000D03*
%TD*%
D19*
%TO.C,ScreenSW1*%
X159933000Y-83820000D03*
D20*
X162433000Y-83820000D03*
%TD*%
D19*
%TO.C,Power1*%
X159893000Y-76454000D03*
D20*
X162393000Y-76454000D03*
%TD*%
D12*
%TO.C,ScreenSW2*%
X160672000Y-106192000D03*
D13*
X160672000Y-108692000D03*
%TD*%
D16*
%TO.C,MPU6050*%
X154051000Y-121666000D03*
D14*
X151511000Y-121666000D03*
X148971000Y-121666000D03*
X146431000Y-121666000D03*
X143891000Y-121666000D03*
X141351000Y-121666000D03*
X138811000Y-121666000D03*
X136271000Y-121666000D03*
%TD*%
D19*
%TO.C,Switch1*%
X159939000Y-69188000D03*
D20*
X162439000Y-69188000D03*
%TD*%
D21*
%TO.C,R1*%
X169545000Y-91186000D03*
D22*
X169545000Y-101346000D03*
%TD*%
M02*
