%TF.GenerationSoftware,KiCad,Pcbnew,7.0.2*%
%TF.CreationDate,2023-09-09T23:31:49+02:00*%
%TF.ProjectId,Husvagn,48757376-6167-46e2-9e6b-696361645f70,rev?*%
%TF.SameCoordinates,Original*%
%TF.FileFunction,Legend,Top*%
%TF.FilePolarity,Positive*%
%FSLAX46Y46*%
G04 Gerber Fmt 4.6, Leading zero omitted, Abs format (unit mm)*
G04 Created by KiCad (PCBNEW 7.0.2) date 2023-09-09 23:31:49*
%MOMM*%
%LPD*%
G01*
G04 APERTURE LIST*
%ADD10C,0.120000*%
G04 APERTURE END LIST*
D10*
%TO.C,Screen3*%
X171216000Y-126953000D02*
X158596000Y-126953000D01*
X171206000Y-129213000D02*
X170456000Y-129213000D01*
X170456000Y-132163000D02*
X164906000Y-132163000D01*
X158606000Y-129213000D02*
X159356000Y-129213000D01*
X158596000Y-132923000D02*
X171216000Y-132923000D01*
X158596000Y-126953000D02*
X158596000Y-132923000D01*
X171216000Y-132923000D02*
X171216000Y-126953000D01*
X169406000Y-127713000D02*
X171206000Y-127713000D01*
X167906000Y-127713000D02*
X167906000Y-126963000D01*
X159556000Y-126663000D02*
X158306000Y-126663000D01*
X170456000Y-129213000D02*
X170456000Y-132163000D01*
X160406000Y-127713000D02*
X160406000Y-126963000D01*
X158306000Y-126663000D02*
X158306000Y-127913000D01*
X158606000Y-126963000D02*
X158606000Y-127713000D01*
X171206000Y-126963000D02*
X169406000Y-126963000D01*
X158606000Y-127713000D02*
X160406000Y-127713000D01*
X169406000Y-126963000D02*
X169406000Y-127713000D01*
X159356000Y-129213000D02*
X159356000Y-132163000D01*
X167906000Y-126963000D02*
X161906000Y-126963000D01*
X160406000Y-126963000D02*
X158606000Y-126963000D01*
X171206000Y-127713000D02*
X171206000Y-126963000D01*
X159356000Y-132163000D02*
X164906000Y-132163000D01*
X161906000Y-127713000D02*
X167906000Y-127713000D01*
X161906000Y-126963000D02*
X161906000Y-127713000D01*
%TO.C,Screen2*%
X171216000Y-119841000D02*
X158596000Y-119841000D01*
X171206000Y-122101000D02*
X170456000Y-122101000D01*
X170456000Y-125051000D02*
X164906000Y-125051000D01*
X158606000Y-122101000D02*
X159356000Y-122101000D01*
X158596000Y-125811000D02*
X171216000Y-125811000D01*
X158596000Y-119841000D02*
X158596000Y-125811000D01*
X171216000Y-125811000D02*
X171216000Y-119841000D01*
X169406000Y-120601000D02*
X171206000Y-120601000D01*
X167906000Y-120601000D02*
X167906000Y-119851000D01*
X159556000Y-119551000D02*
X158306000Y-119551000D01*
X170456000Y-122101000D02*
X170456000Y-125051000D01*
X160406000Y-120601000D02*
X160406000Y-119851000D01*
X158306000Y-119551000D02*
X158306000Y-120801000D01*
X158606000Y-119851000D02*
X158606000Y-120601000D01*
X171206000Y-119851000D02*
X169406000Y-119851000D01*
X158606000Y-120601000D02*
X160406000Y-120601000D01*
X169406000Y-119851000D02*
X169406000Y-120601000D01*
X159356000Y-122101000D02*
X159356000Y-125051000D01*
X167906000Y-119851000D02*
X161906000Y-119851000D01*
X160406000Y-119851000D02*
X158606000Y-119851000D01*
X171206000Y-120601000D02*
X171206000Y-119851000D01*
X159356000Y-125051000D02*
X164906000Y-125051000D01*
X161906000Y-120601000D02*
X167906000Y-120601000D01*
X161906000Y-119851000D02*
X161906000Y-120601000D01*
%TO.C,J3*%
X166439000Y-101556000D02*
X162139000Y-101556000D01*
X167189000Y-96356000D02*
X165389000Y-96356000D01*
X158889000Y-96356000D02*
X157089000Y-96356000D01*
X165389000Y-96356000D02*
X165389000Y-97106000D01*
X167189000Y-98606000D02*
X166439000Y-98606000D01*
X166439000Y-98606000D02*
X166439000Y-101556000D01*
X163889000Y-96356000D02*
X160389000Y-96356000D01*
X167189000Y-97106000D02*
X167189000Y-96356000D01*
X158039000Y-96056000D02*
X156789000Y-96056000D01*
X167199000Y-96346000D02*
X157079000Y-96346000D01*
X157089000Y-96356000D02*
X157089000Y-97106000D01*
X157839000Y-101556000D02*
X162139000Y-101556000D01*
X163889000Y-97106000D02*
X163889000Y-96356000D01*
X157079000Y-96346000D02*
X157079000Y-102316000D01*
X157089000Y-98606000D02*
X157839000Y-98606000D01*
X157839000Y-98606000D02*
X157839000Y-101556000D01*
X165389000Y-97106000D02*
X167189000Y-97106000D01*
X158889000Y-97106000D02*
X158889000Y-96356000D01*
X160389000Y-96356000D02*
X160389000Y-97106000D01*
X167199000Y-102316000D02*
X167199000Y-96346000D01*
X157089000Y-97106000D02*
X158889000Y-97106000D01*
X160389000Y-97106000D02*
X163889000Y-97106000D01*
X157079000Y-102316000D02*
X167199000Y-102316000D01*
X156789000Y-96056000D02*
X156789000Y-97306000D01*
%TO.C,ScreenSW3*%
X168238000Y-111242000D02*
X168238000Y-110492000D01*
X168238000Y-110492000D02*
X165288000Y-110492000D01*
X165288000Y-110492000D02*
X165288000Y-107442000D01*
X168238000Y-104392000D02*
X165288000Y-104392000D01*
X170488000Y-107942000D02*
X170488000Y-106942000D01*
X170488000Y-106942000D02*
X169738000Y-106942000D01*
X169738000Y-106942000D02*
X169738000Y-107942000D01*
X169738000Y-109442000D02*
X169738000Y-111242000D01*
X170488000Y-111242000D02*
X170488000Y-109442000D01*
X170788000Y-103342000D02*
X169538000Y-103342000D01*
X170498000Y-103632000D02*
X164528000Y-103632000D01*
X170488000Y-103642000D02*
X169738000Y-103642000D01*
X164528000Y-103632000D02*
X164528000Y-111252000D01*
X169738000Y-107942000D02*
X170488000Y-107942000D01*
X168238000Y-103642000D02*
X168238000Y-104392000D01*
X169738000Y-103642000D02*
X169738000Y-105442000D01*
X170788000Y-104592000D02*
X170788000Y-103342000D01*
X169738000Y-111242000D02*
X170488000Y-111242000D01*
X170488000Y-105442000D02*
X170488000Y-103642000D01*
X170498000Y-111252000D02*
X170498000Y-103632000D01*
X165288000Y-104392000D02*
X165288000Y-107442000D01*
X170488000Y-109442000D02*
X169738000Y-109442000D01*
X164528000Y-111252000D02*
X170498000Y-111252000D01*
X169738000Y-105442000D02*
X170488000Y-105442000D01*
%TO.C,U1*%
X133984000Y-65863000D02*
X133984000Y-66163000D01*
X133984000Y-65863000D02*
X154984000Y-65863000D01*
X133984000Y-68263000D02*
X133984000Y-68663000D01*
X133984000Y-68530000D02*
X136991000Y-68530000D01*
X133984000Y-70863000D02*
X133984000Y-71263000D01*
X133984000Y-73363000D02*
X133984000Y-73763000D01*
X133984000Y-75963000D02*
X133984000Y-76363000D01*
X133984000Y-78463000D02*
X133984000Y-78863000D01*
X133984000Y-80963000D02*
X133984000Y-81363000D01*
X133984000Y-83563000D02*
X133984000Y-83963000D01*
X133984000Y-86063000D02*
X133984000Y-86463000D01*
X133984000Y-88663000D02*
X133984000Y-89063000D01*
X133984000Y-91163000D02*
X133984000Y-91563000D01*
X133984000Y-93663000D02*
X133984000Y-94063000D01*
X133984000Y-96263000D02*
X133984000Y-96663000D01*
X133984000Y-98763000D02*
X133984000Y-99163000D01*
X133984000Y-101363000D02*
X133984000Y-101763000D01*
X133984000Y-103863000D02*
X133984000Y-104263000D01*
X133984000Y-106463000D02*
X133984000Y-106863000D01*
X133984000Y-108963000D02*
X133984000Y-109363000D01*
X133984000Y-111463000D02*
X133984000Y-111863000D01*
X133984000Y-114063000D02*
X133984000Y-114463000D01*
X136991000Y-68530000D02*
X136991000Y-65863000D01*
X140784000Y-116863000D02*
X133984000Y-116863000D01*
X142984000Y-116863000D02*
X143384000Y-116863000D01*
X145584000Y-116863000D02*
X145984000Y-116863000D01*
X154984000Y-65863000D02*
X154984000Y-66163000D01*
X154984000Y-68263000D02*
X154984000Y-68663000D01*
X154984000Y-70863000D02*
X154984000Y-71263000D01*
X154984000Y-73363000D02*
X154984000Y-73763000D01*
X154984000Y-75963000D02*
X154984000Y-76363000D01*
X154984000Y-78463000D02*
X154984000Y-78863000D01*
X154984000Y-80963000D02*
X154984000Y-81363000D01*
X154984000Y-83563000D02*
X154984000Y-83963000D01*
X154984000Y-86063000D02*
X154984000Y-86463000D01*
X154984000Y-88663000D02*
X154984000Y-89063000D01*
X154984000Y-91163000D02*
X154984000Y-91563000D01*
X154984000Y-93663000D02*
X154984000Y-94063000D01*
X154984000Y-96263000D02*
X154984000Y-96663000D01*
X154984000Y-98763000D02*
X154984000Y-99163000D01*
X154984000Y-101363000D02*
X154984000Y-101763000D01*
X154984000Y-103863000D02*
X154984000Y-104263000D01*
X154984000Y-106463000D02*
X154984000Y-106863000D01*
X154984000Y-108963000D02*
X154984000Y-109363000D01*
X154984000Y-111463000D02*
X154984000Y-111863000D01*
X154984000Y-114063000D02*
X154984000Y-114463000D01*
X154984000Y-116863000D02*
X148184000Y-116863000D01*
%TO.C,J1*%
X166439000Y-94190000D02*
X162139000Y-94190000D01*
X167189000Y-88990000D02*
X165389000Y-88990000D01*
X158889000Y-88990000D02*
X157089000Y-88990000D01*
X165389000Y-88990000D02*
X165389000Y-89740000D01*
X167189000Y-91240000D02*
X166439000Y-91240000D01*
X166439000Y-91240000D02*
X166439000Y-94190000D01*
X163889000Y-88990000D02*
X160389000Y-88990000D01*
X167189000Y-89740000D02*
X167189000Y-88990000D01*
X158039000Y-88690000D02*
X156789000Y-88690000D01*
X167199000Y-88980000D02*
X157079000Y-88980000D01*
X157089000Y-88990000D02*
X157089000Y-89740000D01*
X157839000Y-94190000D02*
X162139000Y-94190000D01*
X163889000Y-89740000D02*
X163889000Y-88990000D01*
X157079000Y-88980000D02*
X157079000Y-94950000D01*
X157089000Y-91240000D02*
X157839000Y-91240000D01*
X157839000Y-91240000D02*
X157839000Y-94190000D01*
X165389000Y-89740000D02*
X167189000Y-89740000D01*
X158889000Y-89740000D02*
X158889000Y-88990000D01*
X160389000Y-88990000D02*
X160389000Y-89740000D01*
X167199000Y-94950000D02*
X167199000Y-88980000D01*
X157089000Y-89740000D02*
X158889000Y-89740000D01*
X160389000Y-89740000D02*
X163889000Y-89740000D01*
X157079000Y-94950000D02*
X167199000Y-94950000D01*
X156789000Y-88690000D02*
X156789000Y-89940000D01*
%TO.C,D1*%
X168783000Y-73168000D02*
X168783000Y-74628000D01*
X171553000Y-74628000D02*
X166013000Y-74628000D01*
X166013000Y-74628000D02*
X166013000Y-83868000D01*
X171553000Y-75978000D02*
X166013000Y-75978000D01*
X171553000Y-76098000D02*
X166013000Y-76098000D01*
X171553000Y-76218000D02*
X166013000Y-76218000D01*
X171553000Y-83868000D02*
X171553000Y-74628000D01*
X166013000Y-83868000D02*
X171553000Y-83868000D01*
X168783000Y-85328000D02*
X168783000Y-83868000D01*
%TO.C,Screen1*%
X171223000Y-118699000D02*
X171223000Y-112729000D01*
X171223000Y-112729000D02*
X158603000Y-112729000D01*
X171213000Y-114989000D02*
X170463000Y-114989000D01*
X171213000Y-113489000D02*
X171213000Y-112739000D01*
X171213000Y-112739000D02*
X169413000Y-112739000D01*
X170463000Y-117939000D02*
X164913000Y-117939000D01*
X170463000Y-114989000D02*
X170463000Y-117939000D01*
X169413000Y-113489000D02*
X171213000Y-113489000D01*
X169413000Y-112739000D02*
X169413000Y-113489000D01*
X167913000Y-113489000D02*
X167913000Y-112739000D01*
X167913000Y-112739000D02*
X161913000Y-112739000D01*
X161913000Y-113489000D02*
X167913000Y-113489000D01*
X161913000Y-112739000D02*
X161913000Y-113489000D01*
X160413000Y-113489000D02*
X160413000Y-112739000D01*
X160413000Y-112739000D02*
X158613000Y-112739000D01*
X159563000Y-112439000D02*
X158313000Y-112439000D01*
X159363000Y-117939000D02*
X164913000Y-117939000D01*
X159363000Y-114989000D02*
X159363000Y-117939000D01*
X158613000Y-114989000D02*
X159363000Y-114989000D01*
X158613000Y-113489000D02*
X160413000Y-113489000D01*
X158613000Y-112739000D02*
X158613000Y-113489000D01*
X158603000Y-118699000D02*
X171223000Y-118699000D01*
X158603000Y-112729000D02*
X158603000Y-118699000D01*
X158313000Y-112439000D02*
X158313000Y-113689000D01*
%TO.C,ScreenSW1*%
X157083000Y-81070000D02*
X157083000Y-82320000D01*
X157373000Y-81360000D02*
X157373000Y-87330000D01*
X157373000Y-87330000D02*
X164993000Y-87330000D01*
X157383000Y-81370000D02*
X157383000Y-82120000D01*
X157383000Y-82120000D02*
X159183000Y-82120000D01*
X157383000Y-83620000D02*
X158133000Y-83620000D01*
X158133000Y-83620000D02*
X158133000Y-86570000D01*
X158133000Y-86570000D02*
X161183000Y-86570000D01*
X158333000Y-81070000D02*
X157083000Y-81070000D01*
X159183000Y-81370000D02*
X157383000Y-81370000D01*
X159183000Y-82120000D02*
X159183000Y-81370000D01*
X160683000Y-81370000D02*
X160683000Y-82120000D01*
X160683000Y-82120000D02*
X161683000Y-82120000D01*
X161683000Y-81370000D02*
X160683000Y-81370000D01*
X161683000Y-82120000D02*
X161683000Y-81370000D01*
X163183000Y-81370000D02*
X163183000Y-82120000D01*
X163183000Y-82120000D02*
X164983000Y-82120000D01*
X164233000Y-83620000D02*
X164233000Y-86570000D01*
X164233000Y-86570000D02*
X161183000Y-86570000D01*
X164983000Y-81370000D02*
X163183000Y-81370000D01*
X164983000Y-82120000D02*
X164983000Y-81370000D01*
X164983000Y-83620000D02*
X164233000Y-83620000D01*
X164993000Y-81360000D02*
X157373000Y-81360000D01*
X164993000Y-87330000D02*
X164993000Y-81360000D01*
%TO.C,Power1*%
X157043000Y-73704000D02*
X157043000Y-74954000D01*
X157333000Y-73994000D02*
X157333000Y-79964000D01*
X157333000Y-79964000D02*
X164953000Y-79964000D01*
X157343000Y-74004000D02*
X157343000Y-74754000D01*
X157343000Y-74754000D02*
X159143000Y-74754000D01*
X157343000Y-76254000D02*
X158093000Y-76254000D01*
X158093000Y-76254000D02*
X158093000Y-79204000D01*
X158093000Y-79204000D02*
X161143000Y-79204000D01*
X158293000Y-73704000D02*
X157043000Y-73704000D01*
X159143000Y-74004000D02*
X157343000Y-74004000D01*
X159143000Y-74754000D02*
X159143000Y-74004000D01*
X160643000Y-74004000D02*
X160643000Y-74754000D01*
X160643000Y-74754000D02*
X161643000Y-74754000D01*
X161643000Y-74004000D02*
X160643000Y-74004000D01*
X161643000Y-74754000D02*
X161643000Y-74004000D01*
X163143000Y-74004000D02*
X163143000Y-74754000D01*
X163143000Y-74754000D02*
X164943000Y-74754000D01*
X164193000Y-76254000D02*
X164193000Y-79204000D01*
X164193000Y-79204000D02*
X161143000Y-79204000D01*
X164943000Y-74004000D02*
X163143000Y-74004000D01*
X164943000Y-74754000D02*
X164943000Y-74004000D01*
X164943000Y-76254000D02*
X164193000Y-76254000D01*
X164953000Y-73994000D02*
X157333000Y-73994000D01*
X164953000Y-79964000D02*
X164953000Y-73994000D01*
%TO.C,ScreenSW2*%
X163422000Y-103342000D02*
X162172000Y-103342000D01*
X163132000Y-103632000D02*
X157162000Y-103632000D01*
X157162000Y-103632000D02*
X157162000Y-111252000D01*
X163122000Y-103642000D02*
X162372000Y-103642000D01*
X162372000Y-103642000D02*
X162372000Y-105442000D01*
X160872000Y-103642000D02*
X160872000Y-104392000D01*
X160872000Y-104392000D02*
X157922000Y-104392000D01*
X157922000Y-104392000D02*
X157922000Y-107442000D01*
X163422000Y-104592000D02*
X163422000Y-103342000D01*
X163122000Y-105442000D02*
X163122000Y-103642000D01*
X162372000Y-105442000D02*
X163122000Y-105442000D01*
X163122000Y-106942000D02*
X162372000Y-106942000D01*
X162372000Y-106942000D02*
X162372000Y-107942000D01*
X163122000Y-107942000D02*
X163122000Y-106942000D01*
X162372000Y-107942000D02*
X163122000Y-107942000D01*
X163122000Y-109442000D02*
X162372000Y-109442000D01*
X162372000Y-109442000D02*
X162372000Y-111242000D01*
X160872000Y-110492000D02*
X157922000Y-110492000D01*
X157922000Y-110492000D02*
X157922000Y-107442000D01*
X163122000Y-111242000D02*
X163122000Y-109442000D01*
X162372000Y-111242000D02*
X163122000Y-111242000D01*
X160872000Y-111242000D02*
X160872000Y-110492000D01*
X163132000Y-111252000D02*
X163132000Y-103632000D01*
X157162000Y-111252000D02*
X163132000Y-111252000D01*
%TO.C,MPU6050*%
X155381000Y-120336000D02*
X155381000Y-121666000D01*
X154051000Y-120336000D02*
X155381000Y-120336000D01*
X152781000Y-120336000D02*
X134941000Y-120336000D01*
X152781000Y-120336000D02*
X152781000Y-122996000D01*
X134941000Y-120336000D02*
X134941000Y-122996000D01*
X152781000Y-122996000D02*
X134941000Y-122996000D01*
%TO.C,Switch1*%
X157089000Y-66438000D02*
X157089000Y-67688000D01*
X157379000Y-66728000D02*
X157379000Y-72698000D01*
X157379000Y-72698000D02*
X164999000Y-72698000D01*
X157389000Y-66738000D02*
X157389000Y-67488000D01*
X157389000Y-67488000D02*
X159189000Y-67488000D01*
X157389000Y-68988000D02*
X158139000Y-68988000D01*
X158139000Y-68988000D02*
X158139000Y-71938000D01*
X158139000Y-71938000D02*
X161189000Y-71938000D01*
X158339000Y-66438000D02*
X157089000Y-66438000D01*
X159189000Y-66738000D02*
X157389000Y-66738000D01*
X159189000Y-67488000D02*
X159189000Y-66738000D01*
X160689000Y-66738000D02*
X160689000Y-67488000D01*
X160689000Y-67488000D02*
X161689000Y-67488000D01*
X161689000Y-66738000D02*
X160689000Y-66738000D01*
X161689000Y-67488000D02*
X161689000Y-66738000D01*
X163189000Y-66738000D02*
X163189000Y-67488000D01*
X163189000Y-67488000D02*
X164989000Y-67488000D01*
X164239000Y-68988000D02*
X164239000Y-71938000D01*
X164239000Y-71938000D02*
X161189000Y-71938000D01*
X164989000Y-66738000D02*
X163189000Y-66738000D01*
X164989000Y-67488000D02*
X164989000Y-66738000D01*
X164989000Y-68988000D02*
X164239000Y-68988000D01*
X164999000Y-66728000D02*
X157379000Y-66728000D01*
X164999000Y-72698000D02*
X164999000Y-66728000D01*
%TO.C,R1*%
X169545000Y-92226000D02*
X169545000Y-92996000D01*
X170915000Y-92996000D02*
X168175000Y-92996000D01*
X168175000Y-92996000D02*
X168175000Y-99536000D01*
X170915000Y-99536000D02*
X170915000Y-92996000D01*
X168175000Y-99536000D02*
X170915000Y-99536000D01*
X169545000Y-100306000D02*
X169545000Y-99536000D01*
%TD*%
M02*
