%TF.GenerationSoftware,KiCad,Pcbnew,7.0.2*%
%TF.CreationDate,2023-09-09T23:31:57+02:00*%
%TF.ProjectId,Husvagn,48757376-6167-46e2-9e6b-696361645f70,rev?*%
%TF.SameCoordinates,Original*%
%TF.FileFunction,Drillmap*%
%TF.FilePolarity,Positive*%
%FSLAX45Y45*%
G04 Gerber Fmt 4.5, Leading zero omitted, Abs format (unit mm)*
G04 Created by KiCad (PCBNEW 7.0.2) date 2023-09-09 23:31:57*
%MOMM*%
%LPD*%
G01*
G04 APERTURE LIST*
%ADD10C,0.100000*%
%ADD11C,0.200000*%
G04 APERTURE END LIST*
D10*
X17206100Y-6642100D02*
G75*
G03*
X17206100Y-6642100I-150000J0D01*
G01*
X12992100Y-6426200D02*
X17272000Y-6426200D01*
X17272000Y-13563600D01*
X12992100Y-13563600D01*
X12992100Y-6426200D01*
X13370700Y-13335000D02*
G75*
G03*
X13370700Y-13335000I-150000J0D01*
G01*
D11*
X13234719Y-13881124D02*
X13234719Y-13681124D01*
X13234719Y-13681124D02*
X13282338Y-13681124D01*
X13282338Y-13681124D02*
X13310909Y-13690648D01*
X13310909Y-13690648D02*
X13329957Y-13709695D01*
X13329957Y-13709695D02*
X13339481Y-13728743D01*
X13339481Y-13728743D02*
X13349005Y-13766838D01*
X13349005Y-13766838D02*
X13349005Y-13795409D01*
X13349005Y-13795409D02*
X13339481Y-13833505D01*
X13339481Y-13833505D02*
X13329957Y-13852552D01*
X13329957Y-13852552D02*
X13310909Y-13871600D01*
X13310909Y-13871600D02*
X13282338Y-13881124D01*
X13282338Y-13881124D02*
X13234719Y-13881124D01*
X13434719Y-13881124D02*
X13434719Y-13747790D01*
X13434719Y-13785886D02*
X13444243Y-13766838D01*
X13444243Y-13766838D02*
X13453767Y-13757314D01*
X13453767Y-13757314D02*
X13472814Y-13747790D01*
X13472814Y-13747790D02*
X13491862Y-13747790D01*
X13558528Y-13881124D02*
X13558528Y-13747790D01*
X13558528Y-13681124D02*
X13549005Y-13690648D01*
X13549005Y-13690648D02*
X13558528Y-13700171D01*
X13558528Y-13700171D02*
X13568052Y-13690648D01*
X13568052Y-13690648D02*
X13558528Y-13681124D01*
X13558528Y-13681124D02*
X13558528Y-13700171D01*
X13682338Y-13881124D02*
X13663290Y-13871600D01*
X13663290Y-13871600D02*
X13653767Y-13852552D01*
X13653767Y-13852552D02*
X13653767Y-13681124D01*
X13787100Y-13881124D02*
X13768052Y-13871600D01*
X13768052Y-13871600D02*
X13758528Y-13852552D01*
X13758528Y-13852552D02*
X13758528Y-13681124D01*
X14015671Y-13881124D02*
X14015671Y-13681124D01*
X14015671Y-13681124D02*
X14082338Y-13823981D01*
X14082338Y-13823981D02*
X14149005Y-13681124D01*
X14149005Y-13681124D02*
X14149005Y-13881124D01*
X14329957Y-13881124D02*
X14329957Y-13776362D01*
X14329957Y-13776362D02*
X14320433Y-13757314D01*
X14320433Y-13757314D02*
X14301386Y-13747790D01*
X14301386Y-13747790D02*
X14263290Y-13747790D01*
X14263290Y-13747790D02*
X14244243Y-13757314D01*
X14329957Y-13871600D02*
X14310909Y-13881124D01*
X14310909Y-13881124D02*
X14263290Y-13881124D01*
X14263290Y-13881124D02*
X14244243Y-13871600D01*
X14244243Y-13871600D02*
X14234719Y-13852552D01*
X14234719Y-13852552D02*
X14234719Y-13833505D01*
X14234719Y-13833505D02*
X14244243Y-13814457D01*
X14244243Y-13814457D02*
X14263290Y-13804933D01*
X14263290Y-13804933D02*
X14310909Y-13804933D01*
X14310909Y-13804933D02*
X14329957Y-13795409D01*
X14425195Y-13747790D02*
X14425195Y-13947790D01*
X14425195Y-13757314D02*
X14444243Y-13747790D01*
X14444243Y-13747790D02*
X14482338Y-13747790D01*
X14482338Y-13747790D02*
X14501386Y-13757314D01*
X14501386Y-13757314D02*
X14510909Y-13766838D01*
X14510909Y-13766838D02*
X14520433Y-13785886D01*
X14520433Y-13785886D02*
X14520433Y-13843028D01*
X14520433Y-13843028D02*
X14510909Y-13862076D01*
X14510909Y-13862076D02*
X14501386Y-13871600D01*
X14501386Y-13871600D02*
X14482338Y-13881124D01*
X14482338Y-13881124D02*
X14444243Y-13881124D01*
X14444243Y-13881124D02*
X14425195Y-13871600D01*
X14606148Y-13862076D02*
X14615671Y-13871600D01*
X14615671Y-13871600D02*
X14606148Y-13881124D01*
X14606148Y-13881124D02*
X14596624Y-13871600D01*
X14596624Y-13871600D02*
X14606148Y-13862076D01*
X14606148Y-13862076D02*
X14606148Y-13881124D01*
X14606148Y-13757314D02*
X14615671Y-13766838D01*
X14615671Y-13766838D02*
X14606148Y-13776362D01*
X14606148Y-13776362D02*
X14596624Y-13766838D01*
X14596624Y-13766838D02*
X14606148Y-13757314D01*
X14606148Y-13757314D02*
X14606148Y-13776362D01*
M02*
