%TF.GenerationSoftware,KiCad,Pcbnew,7.0.2*%
%TF.CreationDate,2023-09-09T23:31:49+02:00*%
%TF.ProjectId,Husvagn,48757376-6167-46e2-9e6b-696361645f70,rev?*%
%TF.SameCoordinates,Original*%
%TF.FileFunction,Copper,L2,Bot*%
%TF.FilePolarity,Positive*%
%FSLAX46Y46*%
G04 Gerber Fmt 4.6, Leading zero omitted, Abs format (unit mm)*
G04 Created by KiCad (PCBNEW 7.0.2) date 2023-09-09 23:31:49*
%MOMM*%
%LPD*%
G01*
G04 APERTURE LIST*
G04 Aperture macros list*
%AMRoundRect*
0 Rectangle with rounded corners*
0 $1 Rounding radius*
0 $2 $3 $4 $5 $6 $7 $8 $9 X,Y pos of 4 corners*
0 Add a 4 corners polygon primitive as box body*
4,1,4,$2,$3,$4,$5,$6,$7,$8,$9,$2,$3,0*
0 Add four circle primitives for the rounded corners*
1,1,$1+$1,$2,$3*
1,1,$1+$1,$4,$5*
1,1,$1+$1,$6,$7*
1,1,$1+$1,$8,$9*
0 Add four rect primitives between the rounded corners*
20,1,$1+$1,$2,$3,$4,$5,0*
20,1,$1+$1,$4,$5,$6,$7,0*
20,1,$1+$1,$6,$7,$8,$9,0*
20,1,$1+$1,$8,$9,$2,$3,0*%
G04 Aperture macros list end*
%TA.AperFunction,ComponentPad*%
%ADD10RoundRect,0.250000X-0.600000X-0.725000X0.600000X-0.725000X0.600000X0.725000X-0.600000X0.725000X0*%
%TD*%
%TA.AperFunction,ComponentPad*%
%ADD11O,1.700000X1.950000*%
%TD*%
%TA.AperFunction,ComponentPad*%
%ADD12RoundRect,0.250000X-0.750000X0.600000X-0.750000X-0.600000X0.750000X-0.600000X0.750000X0.600000X0*%
%TD*%
%TA.AperFunction,ComponentPad*%
%ADD13O,2.000000X1.700000*%
%TD*%
%TA.AperFunction,ComponentPad*%
%ADD14O,1.700000X1.700000*%
%TD*%
%TA.AperFunction,ComponentPad*%
%ADD15R,1.700000X1.700000*%
%TD*%
%TA.AperFunction,ComponentPad*%
%ADD16R,2.600000X2.600000*%
%TD*%
%TA.AperFunction,ComponentPad*%
%ADD17O,2.600000X2.600000*%
%TD*%
%TA.AperFunction,ComponentPad*%
%ADD18RoundRect,0.250000X-0.600000X-0.750000X0.600000X-0.750000X0.600000X0.750000X-0.600000X0.750000X0*%
%TD*%
%TA.AperFunction,ComponentPad*%
%ADD19O,1.700000X2.000000*%
%TD*%
%TA.AperFunction,ComponentPad*%
%ADD20C,1.600000*%
%TD*%
%TA.AperFunction,ComponentPad*%
%ADD21O,1.600000X1.600000*%
%TD*%
%TA.AperFunction,Conductor*%
%ADD22C,0.760000*%
%TD*%
%TA.AperFunction,Conductor*%
%ADD23C,0.250000*%
%TD*%
G04 APERTURE END LIST*
D10*
%TO.P,Screen3,1,Pin_1*%
%TO.N,Net-(MPU6050-Pin_1)*%
X161156000Y-129413000D03*
D11*
%TO.P,Screen3,2,Pin_2*%
%TO.N,Net-(MPU6050-Pin_2)*%
X163656000Y-129413000D03*
%TO.P,Screen3,3,Pin_3*%
%TO.N,Net-(MPU6050-Pin_3)*%
X166156000Y-129413000D03*
%TO.P,Screen3,4,Pin_4*%
%TO.N,Net-(MPU6050-Pin_4)*%
X168656000Y-129413000D03*
%TD*%
D10*
%TO.P,Screen2,1,Pin_1*%
%TO.N,Net-(MPU6050-Pin_1)*%
X161156000Y-122301000D03*
D11*
%TO.P,Screen2,2,Pin_2*%
%TO.N,Net-(MPU6050-Pin_2)*%
X163656000Y-122301000D03*
%TO.P,Screen2,3,Pin_3*%
%TO.N,Net-(MPU6050-Pin_3)*%
X166156000Y-122301000D03*
%TO.P,Screen2,4,Pin_4*%
%TO.N,Net-(MPU6050-Pin_4)*%
X168656000Y-122301000D03*
%TD*%
D10*
%TO.P,J3,1,Pin_1*%
%TO.N,Net-(J1-Pin_1)*%
X159639000Y-98806000D03*
D11*
%TO.P,J3,2,Pin_2*%
%TO.N,Net-(J1-Pin_2)*%
X162139000Y-98806000D03*
%TO.P,J3,3,Pin_3*%
%TO.N,Net-(J1-Pin_3)*%
X164639000Y-98806000D03*
%TD*%
D12*
%TO.P,ScreenSW3,1,Pin_1*%
%TO.N,Net-(MPU6050-Pin_1)*%
X168038000Y-106192000D03*
D13*
%TO.P,ScreenSW3,2,Pin_2*%
%TO.N,Net-(ScreenSW3-Pin_2)*%
X168038000Y-108692000D03*
%TD*%
D14*
%TO.P,U1,1,GPIO0*%
%TO.N,Net-(MPU6050-Pin_4)*%
X135594000Y-67233000D03*
%TO.P,U1,2,GPIO1*%
%TO.N,Net-(MPU6050-Pin_3)*%
X135594000Y-69773000D03*
D15*
%TO.P,U1,3,GND*%
%TO.N,unconnected-(U1-GND-Pad3)*%
X135594000Y-72313000D03*
D14*
%TO.P,U1,4,GPIO2*%
%TO.N,unconnected-(U1-GPIO2-Pad4)*%
X135594000Y-74853000D03*
%TO.P,U1,5,GPIO3*%
%TO.N,unconnected-(U1-GPIO3-Pad5)*%
X135594000Y-77393000D03*
%TO.P,U1,6,GPIO4*%
%TO.N,unconnected-(U1-GPIO4-Pad6)*%
X135594000Y-79933000D03*
%TO.P,U1,7,GPIO5*%
%TO.N,unconnected-(U1-GPIO5-Pad7)*%
X135594000Y-82473000D03*
D15*
%TO.P,U1,8,GND*%
%TO.N,unconnected-(U1-GND-Pad8)*%
X135594000Y-85013000D03*
D14*
%TO.P,U1,9,GPIO6*%
%TO.N,unconnected-(U1-GPIO6-Pad9)*%
X135594000Y-87553000D03*
%TO.P,U1,10,GPIO7*%
%TO.N,unconnected-(U1-GPIO7-Pad10)*%
X135594000Y-90093000D03*
%TO.P,U1,11,GPIO8*%
%TO.N,unconnected-(U1-GPIO8-Pad11)*%
X135594000Y-92633000D03*
%TO.P,U1,12,GPIO9*%
%TO.N,unconnected-(U1-GPIO9-Pad12)*%
X135594000Y-95173000D03*
D15*
%TO.P,U1,13,GND*%
%TO.N,unconnected-(U1-GND-Pad13)*%
X135594000Y-97713000D03*
D14*
%TO.P,U1,14,GPIO10*%
%TO.N,unconnected-(U1-GPIO10-Pad14)*%
X135594000Y-100253000D03*
%TO.P,U1,15,GPIO11*%
%TO.N,unconnected-(U1-GPIO11-Pad15)*%
X135594000Y-102793000D03*
%TO.P,U1,16,GPIO12*%
%TO.N,unconnected-(U1-GPIO12-Pad16)*%
X135594000Y-105333000D03*
%TO.P,U1,17,GPIO13*%
%TO.N,unconnected-(U1-GPIO13-Pad17)*%
X135594000Y-107873000D03*
D15*
%TO.P,U1,18,GND*%
%TO.N,unconnected-(U1-GND-Pad18)*%
X135594000Y-110413000D03*
D14*
%TO.P,U1,19,GPIO14*%
%TO.N,unconnected-(U1-GPIO14-Pad19)*%
X135594000Y-112953000D03*
%TO.P,U1,20,GPIO15*%
%TO.N,unconnected-(U1-GPIO15-Pad20)*%
X135594000Y-115493000D03*
%TO.P,U1,21,GPIO16*%
%TO.N,unconnected-(U1-GPIO16-Pad21)*%
X153374000Y-115493000D03*
%TO.P,U1,22,GPIO17*%
%TO.N,unconnected-(U1-GPIO17-Pad22)*%
X153374000Y-112953000D03*
D15*
%TO.P,U1,23,GND*%
%TO.N,Net-(MPU6050-Pin_2)*%
X153374000Y-110413000D03*
D14*
%TO.P,U1,24,GPIO18*%
%TO.N,Net-(ScreenSW3-Pin_2)*%
X153374000Y-107873000D03*
%TO.P,U1,25,GPIO19*%
%TO.N,Net-(ScreenSW2-Pin_2)*%
X153374000Y-105333000D03*
%TO.P,U1,26,GPIO20*%
%TO.N,unconnected-(U1-GPIO20-Pad26)*%
X153374000Y-102793000D03*
%TO.P,U1,27,GPIO21*%
%TO.N,Net-(J1-Pin_3)*%
X153374000Y-100253000D03*
D15*
%TO.P,U1,28,GND*%
%TO.N,Net-(J1-Pin_2)*%
X153374000Y-97713000D03*
D14*
%TO.P,U1,29,GPIO22*%
%TO.N,Net-(ScreenSW1-Pin_2)*%
X153374000Y-95173000D03*
%TO.P,U1,30,RUN*%
%TO.N,unconnected-(U1-RUN-Pad30)*%
X153374000Y-92633000D03*
%TO.P,U1,31,GPIO26_ADC0*%
%TO.N,unconnected-(U1-GPIO26_ADC0-Pad31)*%
X153374000Y-90093000D03*
%TO.P,U1,32,GPIO27_ADC1*%
%TO.N,unconnected-(U1-GPIO27_ADC1-Pad32)*%
X153374000Y-87553000D03*
D15*
%TO.P,U1,33,AGND*%
%TO.N,unconnected-(U1-AGND-Pad33)*%
X153374000Y-85013000D03*
D14*
%TO.P,U1,34,GPIO28_ADC2*%
%TO.N,unconnected-(U1-GPIO28_ADC2-Pad34)*%
X153374000Y-82473000D03*
%TO.P,U1,35,ADC_VREF*%
%TO.N,unconnected-(U1-ADC_VREF-Pad35)*%
X153374000Y-79933000D03*
%TO.P,U1,36,3V3*%
%TO.N,Net-(J1-Pin_1)*%
X153374000Y-77393000D03*
D15*
%TO.P,U1,38,GND*%
%TO.N,unconnected-(U1-GND-Pad38)*%
X153374000Y-72313000D03*
D14*
%TO.P,U1,39,VSYS*%
%TO.N,Net-(MPU6050-Pin_1)*%
X153374000Y-69773000D03*
%TO.P,U1,40,VBUS*%
%TO.N,unconnected-(U1-VBUS-Pad40)*%
X153374000Y-67233000D03*
%TD*%
D10*
%TO.P,J1,1,Pin_1*%
%TO.N,Net-(J1-Pin_1)*%
X159639000Y-91440000D03*
D11*
%TO.P,J1,2,Pin_2*%
%TO.N,Net-(J1-Pin_2)*%
X162139000Y-91440000D03*
%TO.P,J1,3,Pin_3*%
%TO.N,Net-(J1-Pin_3)*%
X164639000Y-91440000D03*
%TD*%
D16*
%TO.P,D1,1,A1*%
%TO.N,Net-(D1-A1)*%
X168783000Y-71628000D03*
D17*
%TO.P,D1,2,A2*%
%TO.N,Net-(D1-A2)*%
X168783000Y-86868000D03*
%TD*%
D11*
%TO.P,Screen1,4,Pin_4*%
%TO.N,Net-(MPU6050-Pin_4)*%
X168663000Y-115189000D03*
%TO.P,Screen1,3,Pin_3*%
%TO.N,Net-(MPU6050-Pin_3)*%
X166163000Y-115189000D03*
%TO.P,Screen1,2,Pin_2*%
%TO.N,Net-(MPU6050-Pin_2)*%
X163663000Y-115189000D03*
D10*
%TO.P,Screen1,1,Pin_1*%
%TO.N,Net-(MPU6050-Pin_1)*%
X161163000Y-115189000D03*
%TD*%
D18*
%TO.P,ScreenSW1,1,Pin_1*%
%TO.N,Net-(MPU6050-Pin_1)*%
X159933000Y-83820000D03*
D19*
%TO.P,ScreenSW1,2,Pin_2*%
%TO.N,Net-(ScreenSW1-Pin_2)*%
X162433000Y-83820000D03*
%TD*%
D18*
%TO.P,Power1,1,Pin_1*%
%TO.N,Net-(D1-A2)*%
X159893000Y-76454000D03*
D19*
%TO.P,Power1,2,Pin_2*%
%TO.N,Net-(MPU6050-Pin_2)*%
X162393000Y-76454000D03*
%TD*%
D12*
%TO.P,ScreenSW2,1,Pin_1*%
%TO.N,Net-(MPU6050-Pin_1)*%
X160672000Y-106192000D03*
D13*
%TO.P,ScreenSW2,2,Pin_2*%
%TO.N,Net-(ScreenSW2-Pin_2)*%
X160672000Y-108692000D03*
%TD*%
D15*
%TO.P,MPU6050,1,Pin_1*%
%TO.N,Net-(MPU6050-Pin_1)*%
X154051000Y-121666000D03*
D14*
%TO.P,MPU6050,2,Pin_2*%
%TO.N,Net-(MPU6050-Pin_2)*%
X151511000Y-121666000D03*
%TO.P,MPU6050,3,Pin_3*%
%TO.N,Net-(MPU6050-Pin_3)*%
X148971000Y-121666000D03*
%TO.P,MPU6050,4,Pin_4*%
%TO.N,Net-(MPU6050-Pin_4)*%
X146431000Y-121666000D03*
%TO.P,MPU6050,5,Pin_5*%
%TO.N,unconnected-(MPU6050-Pin_5-Pad5)*%
X143891000Y-121666000D03*
%TO.P,MPU6050,6,Pin_6*%
%TO.N,unconnected-(MPU6050-Pin_6-Pad6)*%
X141351000Y-121666000D03*
%TO.P,MPU6050,7,Pin_7*%
%TO.N,unconnected-(MPU6050-Pin_7-Pad7)*%
X138811000Y-121666000D03*
%TO.P,MPU6050,8,Pin_8*%
%TO.N,unconnected-(MPU6050-Pin_8-Pad8)*%
X136271000Y-121666000D03*
%TD*%
D18*
%TO.P,Switch1,1,Pin_1*%
%TO.N,Net-(MPU6050-Pin_1)*%
X159939000Y-69188000D03*
D19*
%TO.P,Switch1,2,Pin_2*%
%TO.N,Net-(D1-A1)*%
X162439000Y-69188000D03*
%TD*%
D20*
%TO.P,R1,1*%
%TO.N,Net-(J1-Pin_1)*%
X169545000Y-91186000D03*
D21*
%TO.P,R1,2*%
%TO.N,Net-(J1-Pin_3)*%
X169545000Y-101346000D03*
%TD*%
D22*
%TO.N,Net-(MPU6050-Pin_4)*%
X163830000Y-134239000D02*
X157988000Y-134239000D01*
X157988000Y-134239000D02*
X146431000Y-122682000D01*
X146431000Y-122682000D02*
X146431000Y-121666000D01*
X168656000Y-129413000D02*
X163830000Y-134239000D01*
%TO.N,Net-(MPU6050-Pin_3)*%
X162600000Y-132969000D02*
X166156000Y-129413000D01*
X148971000Y-121666000D02*
X148971000Y-122936000D01*
X148971000Y-122936000D02*
X159004000Y-132969000D01*
X159004000Y-132969000D02*
X162600000Y-132969000D01*
%TO.N,Net-(MPU6050-Pin_2)*%
X151511000Y-123190000D02*
X151511000Y-121666000D01*
X163656000Y-130095000D02*
X162179000Y-131572000D01*
X159893000Y-131572000D02*
X151511000Y-123190000D01*
X163656000Y-129413000D02*
X163656000Y-130095000D01*
X162179000Y-131572000D02*
X159893000Y-131572000D01*
%TO.N,Net-(MPU6050-Pin_1)*%
X154686000Y-122301000D02*
X154051000Y-121666000D01*
X161156000Y-122301000D02*
X154686000Y-122301000D01*
X161156000Y-122301000D02*
X161156000Y-129413000D01*
%TO.N,Net-(MPU6050-Pin_2)*%
X163656000Y-122301000D02*
X163656000Y-129413000D01*
%TO.N,Net-(MPU6050-Pin_3)*%
X166156000Y-122301000D02*
X166156000Y-129413000D01*
%TO.N,Net-(MPU6050-Pin_4)*%
X168656000Y-122301000D02*
X168656000Y-129413000D01*
%TO.N,Net-(MPU6050-Pin_3)*%
X166156000Y-115196000D02*
X166163000Y-115189000D01*
X166156000Y-122301000D02*
X166156000Y-115196000D01*
%TO.N,Net-(MPU6050-Pin_4)*%
X168656000Y-115196000D02*
X168663000Y-115189000D01*
X168656000Y-122301000D02*
X168656000Y-115196000D01*
%TO.N,Net-(MPU6050-Pin_3)*%
X148971000Y-83150000D02*
X148971000Y-121666000D01*
X135594000Y-69773000D02*
X148971000Y-83150000D01*
%TO.N,Net-(MPU6050-Pin_1)*%
X161163000Y-122294000D02*
X161156000Y-122301000D01*
X161163000Y-115189000D02*
X161163000Y-122294000D01*
X171831000Y-108077000D02*
X167640000Y-112268000D01*
X171831000Y-104648000D02*
X171831000Y-108077000D01*
X167640000Y-112268000D02*
X164084000Y-112268000D01*
X164084000Y-112268000D02*
X161163000Y-115189000D01*
%TO.N,Net-(MPU6050-Pin_2)*%
X163656000Y-115196000D02*
X163663000Y-115189000D01*
X163656000Y-122301000D02*
X163656000Y-115196000D01*
X155702000Y-112741000D02*
X155702000Y-117475000D01*
X153374000Y-110413000D02*
X155702000Y-112741000D01*
D23*
X163663000Y-115189000D02*
X163663000Y-114768000D01*
D22*
X155702000Y-117475000D02*
X151511000Y-121666000D01*
%TO.N,Net-(MPU6050-Pin_4)*%
X144018000Y-119253000D02*
X135382000Y-119253000D01*
X146431000Y-121666000D02*
X144018000Y-119253000D01*
X133052000Y-116923000D02*
X135382000Y-119253000D01*
%TO.N,Net-(MPU6050-Pin_2)*%
X153374000Y-110413000D02*
X153466000Y-110413000D01*
%TO.N,Net-(MPU6050-Pin_4)*%
X131191000Y-115062000D02*
X133052000Y-116923000D01*
%TO.N,Net-(J1-Pin_2)*%
X162139000Y-98806000D02*
X162139000Y-91440000D01*
%TO.N,Net-(J1-Pin_3)*%
X164639000Y-98806000D02*
X164639000Y-91440000D01*
%TO.N,Net-(ScreenSW3-Pin_2)*%
X165986000Y-110744000D02*
X168038000Y-108692000D01*
X158115000Y-110744000D02*
X165986000Y-110744000D01*
X155244000Y-107873000D02*
X158115000Y-110744000D01*
X153374000Y-107873000D02*
X155244000Y-107873000D01*
%TO.N,Net-(ScreenSW2-Pin_2)*%
X157313000Y-105333000D02*
X160672000Y-108692000D01*
X153374000Y-105333000D02*
X157313000Y-105333000D01*
%TO.N,Net-(MPU6050-Pin_1)*%
X168038000Y-106192000D02*
X160672000Y-106192000D01*
X171831000Y-104648000D02*
X169582000Y-104648000D01*
X171831000Y-87122000D02*
X171831000Y-104648000D01*
X169582000Y-104648000D02*
X168038000Y-106192000D01*
X167727000Y-88900000D02*
X170053000Y-88900000D01*
X170053000Y-88900000D02*
X171831000Y-87122000D01*
X171831000Y-71120000D02*
X171831000Y-87122000D01*
%TO.N,Net-(J1-Pin_3)*%
X167005000Y-98806000D02*
X169545000Y-101346000D01*
X164639000Y-98806000D02*
X167005000Y-98806000D01*
%TO.N,Net-(J1-Pin_2)*%
X160401000Y-100838000D02*
X157861000Y-100838000D01*
X162139000Y-99100000D02*
X160401000Y-100838000D01*
D23*
X162139000Y-98806000D02*
X162139000Y-99100000D01*
D22*
%TO.N,Net-(J1-Pin_3)*%
X164639000Y-98806000D02*
X161337000Y-102108000D01*
X161337000Y-102108000D02*
X155229000Y-102108000D01*
X153374000Y-100253000D02*
X155229000Y-102108000D01*
%TO.N,Net-(J1-Pin_2)*%
X154736000Y-97713000D02*
X157861000Y-100838000D01*
X153374000Y-97713000D02*
X154736000Y-97713000D01*
%TO.N,Net-(J1-Pin_1)*%
X159639000Y-91440000D02*
X159639000Y-98806000D01*
%TO.N,Net-(J1-Pin_3)*%
X164639000Y-98886000D02*
X164639000Y-98552000D01*
%TO.N,Net-(J1-Pin_1)*%
X159639000Y-90678000D02*
X159639000Y-91440000D01*
X161163000Y-89154000D02*
X159639000Y-90678000D01*
D23*
%TO.N,*%
X162570104Y-116203527D02*
X162620104Y-116253527D01*
D22*
%TO.N,Net-(D1-A1)*%
X166343000Y-69188000D02*
X165581000Y-69188000D01*
X162439000Y-69188000D02*
X165581000Y-69188000D01*
X168783000Y-71628000D02*
X166343000Y-69188000D01*
%TO.N,Net-(D1-A2)*%
X166751000Y-79502000D02*
X162941000Y-79502000D01*
X162941000Y-79502000D02*
X159893000Y-76454000D01*
X168783000Y-81534000D02*
X166751000Y-79502000D01*
X168783000Y-81534000D02*
X168783000Y-86868000D01*
%TO.N,Net-(MPU6050-Pin_4)*%
X133554000Y-67233000D02*
X135594000Y-67233000D01*
X131191000Y-115062000D02*
X131191000Y-69596000D01*
X131191000Y-69596000D02*
X133554000Y-67233000D01*
%TO.N,Net-(ScreenSW1-Pin_2)*%
X151257000Y-93056000D02*
X153374000Y-95173000D01*
X151257000Y-76454000D02*
X151257000Y-93056000D01*
X162433000Y-83820000D02*
X162433000Y-82042000D01*
X155321000Y-74930000D02*
X152781000Y-74930000D01*
X152781000Y-74930000D02*
X151257000Y-76454000D01*
X162433000Y-82042000D02*
X155321000Y-74930000D01*
%TO.N,Net-(J1-Pin_1)*%
X159893000Y-87884000D02*
X157861000Y-85852000D01*
X157861000Y-85852000D02*
X157861000Y-81880000D01*
X157861000Y-81880000D02*
X153374000Y-77393000D01*
X169545000Y-91186000D02*
X167005000Y-91186000D01*
X164973000Y-89154000D02*
X161163000Y-89154000D01*
X161163000Y-89154000D02*
X159893000Y-87884000D01*
X167005000Y-91186000D02*
X164973000Y-89154000D01*
%TO.N,Net-(J1-Pin_2)*%
X160478000Y-72313000D02*
X153374000Y-72313000D01*
X162393000Y-76454000D02*
X162393000Y-74228000D01*
X153184000Y-97713000D02*
X153374000Y-97713000D01*
X153451000Y-97790000D02*
X153374000Y-97713000D01*
X162393000Y-74228000D02*
X160478000Y-72313000D01*
X153377000Y-97710000D02*
X153374000Y-97713000D01*
%TO.N,Net-(MPU6050-Pin_2)*%
X152974000Y-110413000D02*
X153374000Y-110413000D01*
%TO.N,Net-(MPU6050-Pin_1)*%
X159939000Y-69188000D02*
X162579000Y-66548000D01*
X153959000Y-69188000D02*
X153374000Y-69773000D01*
X162579000Y-66548000D02*
X167259000Y-66548000D01*
X164973000Y-86146000D02*
X162259000Y-86146000D01*
X164973000Y-86146000D02*
X167727000Y-88900000D01*
D23*
X159801000Y-83820000D02*
X159933000Y-83820000D01*
D22*
X167259000Y-66548000D02*
X171831000Y-71120000D01*
X159939000Y-69188000D02*
X153959000Y-69188000D01*
X162259000Y-86146000D02*
X159933000Y-83820000D01*
%TD*%
M02*
