%TF.GenerationSoftware,KiCad,Pcbnew,7.0.2*%
%TF.CreationDate,2023-04-28T23:05:57+02:00*%
%TF.ProjectId,Husvagn,48757376-6167-46e2-9e6b-696361645f70,rev?*%
%TF.SameCoordinates,Original*%
%TF.FileFunction,Copper,L1,Top*%
%TF.FilePolarity,Positive*%
%FSLAX46Y46*%
G04 Gerber Fmt 4.6, Leading zero omitted, Abs format (unit mm)*
G04 Created by KiCad (PCBNEW 7.0.2) date 2023-04-28 23:05:57*
%MOMM*%
%LPD*%
G01*
G04 APERTURE LIST*
G04 Aperture macros list*
%AMRoundRect*
0 Rectangle with rounded corners*
0 $1 Rounding radius*
0 $2 $3 $4 $5 $6 $7 $8 $9 X,Y pos of 4 corners*
0 Add a 4 corners polygon primitive as box body*
4,1,4,$2,$3,$4,$5,$6,$7,$8,$9,$2,$3,0*
0 Add four circle primitives for the rounded corners*
1,1,$1+$1,$2,$3*
1,1,$1+$1,$4,$5*
1,1,$1+$1,$6,$7*
1,1,$1+$1,$8,$9*
0 Add four rect primitives between the rounded corners*
20,1,$1+$1,$2,$3,$4,$5,0*
20,1,$1+$1,$4,$5,$6,$7,0*
20,1,$1+$1,$6,$7,$8,$9,0*
20,1,$1+$1,$8,$9,$2,$3,0*%
G04 Aperture macros list end*
%TA.AperFunction,ComponentPad*%
%ADD10RoundRect,0.250000X0.600000X0.750000X-0.600000X0.750000X-0.600000X-0.750000X0.600000X-0.750000X0*%
%TD*%
%TA.AperFunction,ComponentPad*%
%ADD11O,1.700000X2.000000*%
%TD*%
%TA.AperFunction,ComponentPad*%
%ADD12RoundRect,0.250000X0.725000X-0.600000X0.725000X0.600000X-0.725000X0.600000X-0.725000X-0.600000X0*%
%TD*%
%TA.AperFunction,ComponentPad*%
%ADD13O,1.950000X1.700000*%
%TD*%
%TA.AperFunction,ComponentPad*%
%ADD14R,1.700000X1.700000*%
%TD*%
%TA.AperFunction,ComponentPad*%
%ADD15O,1.700000X1.700000*%
%TD*%
%TA.AperFunction,SMDPad,CuDef*%
%ADD16R,1.700000X3.500000*%
%TD*%
%TA.AperFunction,SMDPad,CuDef*%
%ADD17R,3.500000X1.700000*%
%TD*%
%TA.AperFunction,ComponentPad*%
%ADD18RoundRect,0.250000X-0.600000X-0.750000X0.600000X-0.750000X0.600000X0.750000X-0.600000X0.750000X0*%
%TD*%
G04 APERTURE END LIST*
D10*
%TO.P,Switch2,1,Pin_1*%
%TO.N,Net-(Screen1-Pin_1)*%
X171360000Y-85230000D03*
D11*
%TO.P,Switch2,2,Pin_2*%
%TO.N,Net-(MPU6050-Pin_1)*%
X168860000Y-85230000D03*
%TD*%
D10*
%TO.P,Power1,1,Pin_1*%
%TO.N,Net-(Power1-Pin_1)*%
X171410000Y-101510000D03*
D11*
%TO.P,Power1,2,Pin_2*%
%TO.N,Net-(MPU6050-Pin_2)*%
X168910000Y-101510000D03*
%TD*%
D12*
%TO.P,Screen1,1,Pin_1*%
%TO.N,Net-(Screen1-Pin_1)*%
X168050000Y-71590000D03*
D13*
%TO.P,Screen1,2,Pin_2*%
%TO.N,Net-(MPU6050-Pin_2)*%
X168050000Y-69090000D03*
%TO.P,Screen1,3,Pin_3*%
%TO.N,Net-(MPU6050-Pin_3)*%
X168050000Y-66590000D03*
%TO.P,Screen1,4,Pin_4*%
%TO.N,Net-(MPU6050-Pin_4)*%
X168050000Y-64090000D03*
%TD*%
D14*
%TO.P,MPU6050,1,Pin_1*%
%TO.N,Net-(MPU6050-Pin_1)*%
X171100000Y-38000000D03*
D15*
%TO.P,MPU6050,2,Pin_2*%
%TO.N,Net-(MPU6050-Pin_2)*%
X168560000Y-38000000D03*
%TO.P,MPU6050,3,Pin_3*%
%TO.N,Net-(MPU6050-Pin_3)*%
X166020000Y-38000000D03*
%TO.P,MPU6050,4,Pin_4*%
%TO.N,Net-(MPU6050-Pin_4)*%
X163480000Y-38000000D03*
%TO.P,MPU6050,5,Pin_5*%
%TO.N,unconnected-(MPU6050-Pin_5-Pad5)*%
X160940000Y-38000000D03*
%TO.P,MPU6050,6,Pin_6*%
%TO.N,unconnected-(MPU6050-Pin_6-Pad6)*%
X158400000Y-38000000D03*
%TO.P,MPU6050,7,Pin_7*%
%TO.N,unconnected-(MPU6050-Pin_7-Pad7)*%
X155860000Y-38000000D03*
%TO.P,MPU6050,8,Pin_8*%
%TO.N,unconnected-(MPU6050-Pin_8-Pad8)*%
X153320000Y-38000000D03*
%TD*%
D16*
%TO.P,U1,43,SWDIO*%
%TO.N,unconnected-(U1-SWDIO-Pad43)*%
X153670000Y-107350000D03*
D15*
X153670000Y-106450000D03*
D16*
%TO.P,U1,42,GND*%
%TO.N,unconnected-(U1-GND-Pad42)*%
X151130000Y-107350000D03*
D14*
X151130000Y-106450000D03*
D16*
%TO.P,U1,41,SWCLK*%
%TO.N,unconnected-(U1-SWCLK-Pad41)*%
X148590000Y-107350000D03*
D15*
X148590000Y-106450000D03*
D17*
%TO.P,U1,40,VBUS*%
%TO.N,unconnected-(U1-VBUS-Pad40)*%
X160920000Y-58420000D03*
D15*
X160020000Y-58420000D03*
D17*
%TO.P,U1,39,VSYS*%
%TO.N,Net-(MPU6050-Pin_1)*%
X160920000Y-60960000D03*
D15*
X160020000Y-60960000D03*
D17*
%TO.P,U1,38,GND*%
%TO.N,unconnected-(U1-GND-Pad38)*%
X160920000Y-63500000D03*
D14*
X160020000Y-63500000D03*
D17*
%TO.P,U1,37,3V3_EN*%
%TO.N,unconnected-(U1-3V3_EN-Pad37)*%
X160920000Y-66040000D03*
D15*
X160020000Y-66040000D03*
D17*
%TO.P,U1,36,3V3*%
%TO.N,unconnected-(U1-3V3-Pad36)*%
X160920000Y-68580000D03*
D15*
X160020000Y-68580000D03*
D17*
%TO.P,U1,35,ADC_VREF*%
%TO.N,unconnected-(U1-ADC_VREF-Pad35)*%
X160920000Y-71120000D03*
D15*
X160020000Y-71120000D03*
D17*
%TO.P,U1,34,GPIO28_ADC2*%
%TO.N,unconnected-(U1-GPIO28_ADC2-Pad34)*%
X160920000Y-73660000D03*
D15*
X160020000Y-73660000D03*
D17*
%TO.P,U1,33,AGND*%
%TO.N,unconnected-(U1-AGND-Pad33)*%
X160920000Y-76200000D03*
D14*
X160020000Y-76200000D03*
D17*
%TO.P,U1,32,GPIO27_ADC1*%
%TO.N,unconnected-(U1-GPIO27_ADC1-Pad32)*%
X160920000Y-78740000D03*
D15*
X160020000Y-78740000D03*
D17*
%TO.P,U1,31,GPIO26_ADC0*%
%TO.N,unconnected-(U1-GPIO26_ADC0-Pad31)*%
X160920000Y-81280000D03*
D15*
X160020000Y-81280000D03*
D17*
%TO.P,U1,30,RUN*%
%TO.N,unconnected-(U1-RUN-Pad30)*%
X160920000Y-83820000D03*
D15*
X160020000Y-83820000D03*
D17*
%TO.P,U1,29,GPIO22*%
%TO.N,unconnected-(U1-GPIO22-Pad29)*%
X160920000Y-86360000D03*
D15*
X160020000Y-86360000D03*
D17*
%TO.P,U1,28,GND*%
%TO.N,unconnected-(U1-GND-Pad28)*%
X160920000Y-88900000D03*
D14*
X160020000Y-88900000D03*
D17*
%TO.P,U1,27,GPIO21*%
%TO.N,unconnected-(U1-GPIO21-Pad27)*%
X160920000Y-91440000D03*
D15*
X160020000Y-91440000D03*
D17*
%TO.P,U1,26,GPIO20*%
%TO.N,unconnected-(U1-GPIO20-Pad26)*%
X160920000Y-93980000D03*
D15*
X160020000Y-93980000D03*
D17*
%TO.P,U1,25,GPIO19*%
%TO.N,unconnected-(U1-GPIO19-Pad25)*%
X160920000Y-96520000D03*
D15*
X160020000Y-96520000D03*
D17*
%TO.P,U1,24,GPIO18*%
%TO.N,unconnected-(U1-GPIO18-Pad24)*%
X160920000Y-99060000D03*
D15*
X160020000Y-99060000D03*
D17*
%TO.P,U1,23,GND*%
%TO.N,Net-(MPU6050-Pin_2)*%
X160920000Y-101600000D03*
D14*
X160020000Y-101600000D03*
D17*
%TO.P,U1,22,GPIO17*%
%TO.N,unconnected-(U1-GPIO17-Pad22)*%
X160920000Y-104140000D03*
D15*
X160020000Y-104140000D03*
D17*
%TO.P,U1,21,GPIO16*%
%TO.N,unconnected-(U1-GPIO16-Pad21)*%
X160920000Y-106680000D03*
D15*
X160020000Y-106680000D03*
D17*
%TO.P,U1,20,GPIO15*%
%TO.N,unconnected-(U1-GPIO15-Pad20)*%
X141340000Y-106680000D03*
D15*
X142240000Y-106680000D03*
D17*
%TO.P,U1,19,GPIO14*%
%TO.N,unconnected-(U1-GPIO14-Pad19)*%
X141340000Y-104140000D03*
D15*
X142240000Y-104140000D03*
D17*
%TO.P,U1,18,GND*%
%TO.N,unconnected-(U1-GND-Pad18)*%
X141340000Y-101600000D03*
D14*
X142240000Y-101600000D03*
D17*
%TO.P,U1,17,GPIO13*%
%TO.N,unconnected-(U1-GPIO13-Pad17)*%
X141340000Y-99060000D03*
D15*
X142240000Y-99060000D03*
D17*
%TO.P,U1,16,GPIO12*%
%TO.N,unconnected-(U1-GPIO12-Pad16)*%
X141340000Y-96520000D03*
D15*
X142240000Y-96520000D03*
D17*
%TO.P,U1,15,GPIO11*%
%TO.N,unconnected-(U1-GPIO11-Pad15)*%
X141340000Y-93980000D03*
D15*
X142240000Y-93980000D03*
D17*
%TO.P,U1,14,GPIO10*%
%TO.N,unconnected-(U1-GPIO10-Pad14)*%
X141340000Y-91440000D03*
D15*
X142240000Y-91440000D03*
D17*
%TO.P,U1,13,GND*%
%TO.N,unconnected-(U1-GND-Pad13)*%
X141340000Y-88900000D03*
D14*
X142240000Y-88900000D03*
D17*
%TO.P,U1,12,GPIO9*%
%TO.N,unconnected-(U1-GPIO9-Pad12)*%
X141340000Y-86360000D03*
D15*
X142240000Y-86360000D03*
D17*
%TO.P,U1,11,GPIO8*%
%TO.N,unconnected-(U1-GPIO8-Pad11)*%
X141340000Y-83820000D03*
D15*
X142240000Y-83820000D03*
D17*
%TO.P,U1,10,GPIO7*%
%TO.N,unconnected-(U1-GPIO7-Pad10)*%
X141340000Y-81280000D03*
D15*
X142240000Y-81280000D03*
D17*
%TO.P,U1,9,GPIO6*%
%TO.N,unconnected-(U1-GPIO6-Pad9)*%
X141340000Y-78740000D03*
D15*
X142240000Y-78740000D03*
D17*
%TO.P,U1,8,GND*%
%TO.N,unconnected-(U1-GND-Pad8)*%
X141340000Y-76200000D03*
D14*
X142240000Y-76200000D03*
D17*
%TO.P,U1,7,GPIO5*%
%TO.N,unconnected-(U1-GPIO5-Pad7)*%
X141340000Y-73660000D03*
D15*
X142240000Y-73660000D03*
D17*
%TO.P,U1,6,GPIO4*%
%TO.N,unconnected-(U1-GPIO4-Pad6)*%
X141340000Y-71120000D03*
D15*
X142240000Y-71120000D03*
D17*
%TO.P,U1,5,GPIO3*%
%TO.N,unconnected-(U1-GPIO3-Pad5)*%
X141340000Y-68580000D03*
D15*
X142240000Y-68580000D03*
D17*
%TO.P,U1,4,GPIO2*%
%TO.N,unconnected-(U1-GPIO2-Pad4)*%
X141340000Y-66040000D03*
D15*
X142240000Y-66040000D03*
D17*
%TO.P,U1,3,GND*%
%TO.N,unconnected-(U1-GND-Pad3)*%
X141340000Y-63500000D03*
D14*
X142240000Y-63500000D03*
D17*
%TO.P,U1,2,GPIO1*%
%TO.N,Net-(MPU6050-Pin_3)*%
X141340000Y-60960000D03*
D15*
X142240000Y-60960000D03*
D17*
%TO.P,U1,1,GPIO0*%
%TO.N,Net-(MPU6050-Pin_4)*%
X141340000Y-58420000D03*
D15*
X142240000Y-58420000D03*
%TD*%
D18*
%TO.P,Switch1,1,Pin_1*%
%TO.N,Net-(MPU6050-Pin_1)*%
X168880000Y-92330000D03*
D11*
%TO.P,Switch1,2,Pin_2*%
%TO.N,Net-(Power1-Pin_1)*%
X171380000Y-92330000D03*
%TD*%
M02*
