M48
; DRILL file {KiCad 7.0.2} date Sat Sep  9 23:31:56 2023
; FORMAT={-:-/ absolute / inch / decimal}
; #@! TF.CreationDate,2023-09-09T23:31:56+02:00
; #@! TF.GenerationSoftware,Kicad,Pcbnew,7.0.2
; #@! TF.FileFunction,Plated,1,2,PTH
FMAT,2
INCH
; #@! TA.AperFunction,Plated,PTH,ComponentDrill
T1C0.0315
; #@! TA.AperFunction,Plated,PTH,ComponentDrill
T2C0.0374
; #@! TA.AperFunction,Plated,PTH,ComponentDrill
T3C0.0394
; #@! TA.AperFunction,Plated,PTH,ComponentDrill
T4C0.0402
; #@! TA.AperFunction,Plated,PTH,ComponentDrill
T5C0.0512
%
G90
G05
T1
X6.675Y-3.59
X6.675Y-3.99
T2
X6.285Y-3.6
X6.285Y-3.89
X6.3447Y-4.815
X6.3447Y-5.095
X6.345Y-4.535
X6.3834Y-3.6
X6.3834Y-3.89
X6.4431Y-4.815
X6.4431Y-5.095
X6.4434Y-4.535
X6.4819Y-3.6
X6.4819Y-3.89
X6.5416Y-4.815
X6.5416Y-5.095
X6.5419Y-4.535
X6.64Y-4.815
X6.64Y-5.095
X6.6403Y-4.535
T3
X5.365Y-4.79
X5.465Y-4.79
X5.565Y-4.79
X5.665Y-4.79
X5.765Y-4.79
X5.865Y-4.79
X5.965Y-4.79
X6.065Y-4.79
X6.295Y-3.01
X6.2966Y-3.3
X6.2968Y-2.7239
X6.3257Y-4.1808
X6.3257Y-4.2792
X6.3934Y-3.01
X6.395Y-3.3
X6.3952Y-2.7239
X6.6157Y-4.1808
X6.6157Y-4.2792
T4
X5.3383Y-2.647
X5.3383Y-2.747
X5.3383Y-2.847
X5.3383Y-2.947
X5.3383Y-3.047
X5.3383Y-3.147
X5.3383Y-3.247
X5.3383Y-3.347
X5.3383Y-3.447
X5.3383Y-3.547
X5.3383Y-3.647
X5.3383Y-3.747
X5.3383Y-3.847
X5.3383Y-3.947
X5.3383Y-4.047
X5.3383Y-4.147
X5.3383Y-4.247
X5.3383Y-4.347
X5.3383Y-4.447
X5.3383Y-4.547
X6.0383Y-2.647
X6.0383Y-2.747
X6.0383Y-2.847
X6.0383Y-3.047
X6.0383Y-3.147
X6.0383Y-3.247
X6.0383Y-3.347
X6.0383Y-3.447
X6.0383Y-3.547
X6.0383Y-3.647
X6.0383Y-3.747
X6.0383Y-3.847
X6.0383Y-3.947
X6.0383Y-4.047
X6.0383Y-4.147
X6.0383Y-4.247
X6.0383Y-4.347
X6.0383Y-4.447
X6.0383Y-4.547
T5
X6.645Y-2.82
X6.645Y-3.42
T0
M30
