%TF.GenerationSoftware,KiCad,Pcbnew,7.0.2*%
%TF.CreationDate,2023-09-09T23:31:57+02:00*%
%TF.ProjectId,Husvagn,48757376-6167-46e2-9e6b-696361645f70,rev?*%
%TF.SameCoordinates,Original*%
%TF.FileFunction,Drillmap*%
%TF.FilePolarity,Positive*%
%FSLAX45Y45*%
G04 Gerber Fmt 4.5, Leading zero omitted, Abs format (unit mm)*
G04 Created by KiCad (PCBNEW 7.0.2) date 2023-09-09 23:31:57*
%MOMM*%
%LPD*%
G01*
G04 APERTURE LIST*
%ADD10C,0.100000*%
%ADD11C,0.200000*%
%ADD12C,0.080000*%
%ADD13C,0.095000*%
%ADD14C,0.102000*%
%ADD15C,0.130000*%
G04 APERTURE END LIST*
D10*
X17206100Y-6642100D02*
G75*
G03*
X17206100Y-6642100I-150000J0D01*
G01*
X12992100Y-6426200D02*
X17272000Y-6426200D01*
X17272000Y-13563600D01*
X12992100Y-13563600D01*
X12992100Y-6426200D01*
X13370700Y-13335000D02*
G75*
G03*
X13370700Y-13335000I-150000J0D01*
G01*
D11*
D12*
X16914500Y-9078600D02*
X16994500Y-9158600D01*
X16994500Y-9078600D02*
X16914500Y-9158600D01*
X16914500Y-10094600D02*
X16994500Y-10174600D01*
X16994500Y-10094600D02*
X16914500Y-10174600D01*
D13*
X16011400Y-9144000D02*
G75*
G03*
X16011400Y-9144000I-47500J0D01*
G01*
X16011400Y-9880600D02*
G75*
G03*
X16011400Y-9880600I-47500J0D01*
G01*
X16163100Y-12230100D02*
G75*
G03*
X16163100Y-12230100I-47500J0D01*
G01*
X16163100Y-12941300D02*
G75*
G03*
X16163100Y-12941300I-47500J0D01*
G01*
X16163800Y-11518900D02*
G75*
G03*
X16163800Y-11518900I-47500J0D01*
G01*
X16261400Y-9144000D02*
G75*
G03*
X16261400Y-9144000I-47500J0D01*
G01*
X16261400Y-9880600D02*
G75*
G03*
X16261400Y-9880600I-47500J0D01*
G01*
X16413100Y-12230100D02*
G75*
G03*
X16413100Y-12230100I-47500J0D01*
G01*
X16413100Y-12941300D02*
G75*
G03*
X16413100Y-12941300I-47500J0D01*
G01*
X16413800Y-11518900D02*
G75*
G03*
X16413800Y-11518900I-47500J0D01*
G01*
X16511400Y-9144000D02*
G75*
G03*
X16511400Y-9144000I-47500J0D01*
G01*
X16511400Y-9880600D02*
G75*
G03*
X16511400Y-9880600I-47500J0D01*
G01*
X16663100Y-12230100D02*
G75*
G03*
X16663100Y-12230100I-47500J0D01*
G01*
X16663100Y-12941300D02*
G75*
G03*
X16663100Y-12941300I-47500J0D01*
G01*
X16663800Y-11518900D02*
G75*
G03*
X16663800Y-11518900I-47500J0D01*
G01*
X16913100Y-12230100D02*
G75*
G03*
X16913100Y-12230100I-47500J0D01*
G01*
X16913100Y-12941300D02*
G75*
G03*
X16913100Y-12941300I-47500J0D01*
G01*
X16913800Y-11518900D02*
G75*
G03*
X16913800Y-11518900I-47500J0D01*
G01*
D10*
X13627100Y-12116600D02*
X13627100Y-12216600D01*
X13577100Y-12166600D02*
X13677100Y-12166600D01*
X13881100Y-12116600D02*
X13881100Y-12216600D01*
X13831100Y-12166600D02*
X13931100Y-12166600D01*
X14135100Y-12116600D02*
X14135100Y-12216600D01*
X14085100Y-12166600D02*
X14185100Y-12166600D01*
X14389100Y-12116600D02*
X14389100Y-12216600D01*
X14339100Y-12166600D02*
X14439100Y-12166600D01*
X14643100Y-12116600D02*
X14643100Y-12216600D01*
X14593100Y-12166600D02*
X14693100Y-12166600D01*
X14897100Y-12116600D02*
X14897100Y-12216600D01*
X14847100Y-12166600D02*
X14947100Y-12166600D01*
X15151100Y-12116600D02*
X15151100Y-12216600D01*
X15101100Y-12166600D02*
X15201100Y-12166600D01*
X15405100Y-12116600D02*
X15405100Y-12216600D01*
X15355100Y-12166600D02*
X15455100Y-12166600D01*
X15989300Y-7595400D02*
X15989300Y-7695400D01*
X15939300Y-7645400D02*
X16039300Y-7645400D01*
X15993300Y-8332000D02*
X15993300Y-8432000D01*
X15943300Y-8382000D02*
X16043300Y-8382000D01*
X15993900Y-6868800D02*
X15993900Y-6968800D01*
X15943900Y-6918800D02*
X16043900Y-6918800D01*
X16067200Y-10569200D02*
X16067200Y-10669200D01*
X16017200Y-10619200D02*
X16117200Y-10619200D01*
X16067200Y-10819200D02*
X16067200Y-10919200D01*
X16017200Y-10869200D02*
X16117200Y-10869200D01*
X16239300Y-7595400D02*
X16239300Y-7695400D01*
X16189300Y-7645400D02*
X16289300Y-7645400D01*
X16243300Y-8332000D02*
X16243300Y-8432000D01*
X16193300Y-8382000D02*
X16293300Y-8382000D01*
X16243900Y-6868800D02*
X16243900Y-6968800D01*
X16193900Y-6918800D02*
X16293900Y-6918800D01*
X16803800Y-10569200D02*
X16803800Y-10669200D01*
X16753800Y-10619200D02*
X16853800Y-10619200D01*
X16803800Y-10819200D02*
X16803800Y-10919200D01*
X16753800Y-10869200D02*
X16853800Y-10869200D01*
D14*
X13595463Y-6759363D02*
X13595463Y-6687237D01*
X13523337Y-6687237D01*
X13523337Y-6759363D01*
X13595463Y-6759363D01*
X13595463Y-7013363D02*
X13595463Y-6941237D01*
X13523337Y-6941237D01*
X13523337Y-7013363D01*
X13595463Y-7013363D01*
X13595463Y-7267363D02*
X13595463Y-7195237D01*
X13523337Y-7195237D01*
X13523337Y-7267363D01*
X13595463Y-7267363D01*
X13595463Y-7521363D02*
X13595463Y-7449237D01*
X13523337Y-7449237D01*
X13523337Y-7521363D01*
X13595463Y-7521363D01*
X13595463Y-7775363D02*
X13595463Y-7703237D01*
X13523337Y-7703237D01*
X13523337Y-7775363D01*
X13595463Y-7775363D01*
X13595463Y-8029363D02*
X13595463Y-7957237D01*
X13523337Y-7957237D01*
X13523337Y-8029363D01*
X13595463Y-8029363D01*
X13595463Y-8283363D02*
X13595463Y-8211237D01*
X13523337Y-8211237D01*
X13523337Y-8283363D01*
X13595463Y-8283363D01*
X13595463Y-8537363D02*
X13595463Y-8465237D01*
X13523337Y-8465237D01*
X13523337Y-8537363D01*
X13595463Y-8537363D01*
X13595463Y-8791363D02*
X13595463Y-8719237D01*
X13523337Y-8719237D01*
X13523337Y-8791363D01*
X13595463Y-8791363D01*
X13595463Y-9045363D02*
X13595463Y-8973237D01*
X13523337Y-8973237D01*
X13523337Y-9045363D01*
X13595463Y-9045363D01*
X13595463Y-9299363D02*
X13595463Y-9227237D01*
X13523337Y-9227237D01*
X13523337Y-9299363D01*
X13595463Y-9299363D01*
X13595463Y-9553363D02*
X13595463Y-9481237D01*
X13523337Y-9481237D01*
X13523337Y-9553363D01*
X13595463Y-9553363D01*
X13595463Y-9807363D02*
X13595463Y-9735237D01*
X13523337Y-9735237D01*
X13523337Y-9807363D01*
X13595463Y-9807363D01*
X13595463Y-10061363D02*
X13595463Y-9989237D01*
X13523337Y-9989237D01*
X13523337Y-10061363D01*
X13595463Y-10061363D01*
X13595463Y-10315363D02*
X13595463Y-10243237D01*
X13523337Y-10243237D01*
X13523337Y-10315363D01*
X13595463Y-10315363D01*
X13595463Y-10569363D02*
X13595463Y-10497237D01*
X13523337Y-10497237D01*
X13523337Y-10569363D01*
X13595463Y-10569363D01*
X13595463Y-10823363D02*
X13595463Y-10751237D01*
X13523337Y-10751237D01*
X13523337Y-10823363D01*
X13595463Y-10823363D01*
X13595463Y-11077363D02*
X13595463Y-11005237D01*
X13523337Y-11005237D01*
X13523337Y-11077363D01*
X13595463Y-11077363D01*
X13595463Y-11331363D02*
X13595463Y-11259237D01*
X13523337Y-11259237D01*
X13523337Y-11331363D01*
X13595463Y-11331363D01*
X13595463Y-11585363D02*
X13595463Y-11513237D01*
X13523337Y-11513237D01*
X13523337Y-11585363D01*
X13595463Y-11585363D01*
X15373463Y-6759363D02*
X15373463Y-6687237D01*
X15301337Y-6687237D01*
X15301337Y-6759363D01*
X15373463Y-6759363D01*
X15373463Y-7013363D02*
X15373463Y-6941237D01*
X15301337Y-6941237D01*
X15301337Y-7013363D01*
X15373463Y-7013363D01*
X15373463Y-7267363D02*
X15373463Y-7195237D01*
X15301337Y-7195237D01*
X15301337Y-7267363D01*
X15373463Y-7267363D01*
X15373463Y-7775363D02*
X15373463Y-7703237D01*
X15301337Y-7703237D01*
X15301337Y-7775363D01*
X15373463Y-7775363D01*
X15373463Y-8029363D02*
X15373463Y-7957237D01*
X15301337Y-7957237D01*
X15301337Y-8029363D01*
X15373463Y-8029363D01*
X15373463Y-8283363D02*
X15373463Y-8211237D01*
X15301337Y-8211237D01*
X15301337Y-8283363D01*
X15373463Y-8283363D01*
X15373463Y-8537363D02*
X15373463Y-8465237D01*
X15301337Y-8465237D01*
X15301337Y-8537363D01*
X15373463Y-8537363D01*
X15373463Y-8791363D02*
X15373463Y-8719237D01*
X15301337Y-8719237D01*
X15301337Y-8791363D01*
X15373463Y-8791363D01*
X15373463Y-9045363D02*
X15373463Y-8973237D01*
X15301337Y-8973237D01*
X15301337Y-9045363D01*
X15373463Y-9045363D01*
X15373463Y-9299363D02*
X15373463Y-9227237D01*
X15301337Y-9227237D01*
X15301337Y-9299363D01*
X15373463Y-9299363D01*
X15373463Y-9553363D02*
X15373463Y-9481237D01*
X15301337Y-9481237D01*
X15301337Y-9553363D01*
X15373463Y-9553363D01*
X15373463Y-9807363D02*
X15373463Y-9735237D01*
X15301337Y-9735237D01*
X15301337Y-9807363D01*
X15373463Y-9807363D01*
X15373463Y-10061363D02*
X15373463Y-9989237D01*
X15301337Y-9989237D01*
X15301337Y-10061363D01*
X15373463Y-10061363D01*
X15373463Y-10315363D02*
X15373463Y-10243237D01*
X15301337Y-10243237D01*
X15301337Y-10315363D01*
X15373463Y-10315363D01*
X15373463Y-10569363D02*
X15373463Y-10497237D01*
X15301337Y-10497237D01*
X15301337Y-10569363D01*
X15373463Y-10569363D01*
X15373463Y-10823363D02*
X15373463Y-10751237D01*
X15301337Y-10751237D01*
X15301337Y-10823363D01*
X15373463Y-10823363D01*
X15373463Y-11077363D02*
X15373463Y-11005237D01*
X15301337Y-11005237D01*
X15301337Y-11077363D01*
X15373463Y-11077363D01*
X15373463Y-11331363D02*
X15373463Y-11259237D01*
X15301337Y-11259237D01*
X15301337Y-11331363D01*
X15373463Y-11331363D01*
X15373463Y-11585363D02*
X15373463Y-11513237D01*
X15301337Y-11513237D01*
X15301337Y-11585363D01*
X15373463Y-11585363D01*
D15*
X16878300Y-7227800D02*
X16943300Y-7162800D01*
X16878300Y-7097800D01*
X16813300Y-7162800D01*
X16878300Y-7227800D01*
X16878300Y-8751800D02*
X16943300Y-8686800D01*
X16878300Y-8621800D01*
X16813300Y-8686800D01*
X16878300Y-8751800D01*
D11*
X13234719Y-13881124D02*
X13234719Y-13681124D01*
X13234719Y-13681124D02*
X13282338Y-13681124D01*
X13282338Y-13681124D02*
X13310909Y-13690648D01*
X13310909Y-13690648D02*
X13329957Y-13709695D01*
X13329957Y-13709695D02*
X13339481Y-13728743D01*
X13339481Y-13728743D02*
X13349005Y-13766838D01*
X13349005Y-13766838D02*
X13349005Y-13795409D01*
X13349005Y-13795409D02*
X13339481Y-13833505D01*
X13339481Y-13833505D02*
X13329957Y-13852552D01*
X13329957Y-13852552D02*
X13310909Y-13871600D01*
X13310909Y-13871600D02*
X13282338Y-13881124D01*
X13282338Y-13881124D02*
X13234719Y-13881124D01*
X13434719Y-13881124D02*
X13434719Y-13747790D01*
X13434719Y-13785886D02*
X13444243Y-13766838D01*
X13444243Y-13766838D02*
X13453767Y-13757314D01*
X13453767Y-13757314D02*
X13472814Y-13747790D01*
X13472814Y-13747790D02*
X13491862Y-13747790D01*
X13558528Y-13881124D02*
X13558528Y-13747790D01*
X13558528Y-13681124D02*
X13549005Y-13690648D01*
X13549005Y-13690648D02*
X13558528Y-13700171D01*
X13558528Y-13700171D02*
X13568052Y-13690648D01*
X13568052Y-13690648D02*
X13558528Y-13681124D01*
X13558528Y-13681124D02*
X13558528Y-13700171D01*
X13682338Y-13881124D02*
X13663290Y-13871600D01*
X13663290Y-13871600D02*
X13653767Y-13852552D01*
X13653767Y-13852552D02*
X13653767Y-13681124D01*
X13787100Y-13881124D02*
X13768052Y-13871600D01*
X13768052Y-13871600D02*
X13758528Y-13852552D01*
X13758528Y-13852552D02*
X13758528Y-13681124D01*
X14015671Y-13881124D02*
X14015671Y-13681124D01*
X14015671Y-13681124D02*
X14082338Y-13823981D01*
X14082338Y-13823981D02*
X14149005Y-13681124D01*
X14149005Y-13681124D02*
X14149005Y-13881124D01*
X14329957Y-13881124D02*
X14329957Y-13776362D01*
X14329957Y-13776362D02*
X14320433Y-13757314D01*
X14320433Y-13757314D02*
X14301386Y-13747790D01*
X14301386Y-13747790D02*
X14263290Y-13747790D01*
X14263290Y-13747790D02*
X14244243Y-13757314D01*
X14329957Y-13871600D02*
X14310909Y-13881124D01*
X14310909Y-13881124D02*
X14263290Y-13881124D01*
X14263290Y-13881124D02*
X14244243Y-13871600D01*
X14244243Y-13871600D02*
X14234719Y-13852552D01*
X14234719Y-13852552D02*
X14234719Y-13833505D01*
X14234719Y-13833505D02*
X14244243Y-13814457D01*
X14244243Y-13814457D02*
X14263290Y-13804933D01*
X14263290Y-13804933D02*
X14310909Y-13804933D01*
X14310909Y-13804933D02*
X14329957Y-13795409D01*
X14425195Y-13747790D02*
X14425195Y-13947790D01*
X14425195Y-13757314D02*
X14444243Y-13747790D01*
X14444243Y-13747790D02*
X14482338Y-13747790D01*
X14482338Y-13747790D02*
X14501386Y-13757314D01*
X14501386Y-13757314D02*
X14510909Y-13766838D01*
X14510909Y-13766838D02*
X14520433Y-13785886D01*
X14520433Y-13785886D02*
X14520433Y-13843028D01*
X14520433Y-13843028D02*
X14510909Y-13862076D01*
X14510909Y-13862076D02*
X14501386Y-13871600D01*
X14501386Y-13871600D02*
X14482338Y-13881124D01*
X14482338Y-13881124D02*
X14444243Y-13881124D01*
X14444243Y-13881124D02*
X14425195Y-13871600D01*
X14606148Y-13862076D02*
X14615671Y-13871600D01*
X14615671Y-13871600D02*
X14606148Y-13881124D01*
X14606148Y-13881124D02*
X14596624Y-13871600D01*
X14596624Y-13871600D02*
X14606148Y-13862076D01*
X14606148Y-13862076D02*
X14606148Y-13881124D01*
X14606148Y-13757314D02*
X14615671Y-13766838D01*
X14615671Y-13766838D02*
X14606148Y-13776362D01*
X14606148Y-13776362D02*
X14596624Y-13766838D01*
X14596624Y-13766838D02*
X14606148Y-13757314D01*
X14606148Y-13757314D02*
X14606148Y-13776362D01*
D12*
X12907100Y-14168600D02*
X12987100Y-14248600D01*
X12987100Y-14168600D02*
X12907100Y-14248600D01*
D11*
X13272814Y-14101124D02*
X13291862Y-14101124D01*
X13291862Y-14101124D02*
X13310909Y-14110648D01*
X13310909Y-14110648D02*
X13320433Y-14120171D01*
X13320433Y-14120171D02*
X13329957Y-14139219D01*
X13329957Y-14139219D02*
X13339481Y-14177314D01*
X13339481Y-14177314D02*
X13339481Y-14224933D01*
X13339481Y-14224933D02*
X13329957Y-14263028D01*
X13329957Y-14263028D02*
X13320433Y-14282076D01*
X13320433Y-14282076D02*
X13310909Y-14291600D01*
X13310909Y-14291600D02*
X13291862Y-14301124D01*
X13291862Y-14301124D02*
X13272814Y-14301124D01*
X13272814Y-14301124D02*
X13253767Y-14291600D01*
X13253767Y-14291600D02*
X13244243Y-14282076D01*
X13244243Y-14282076D02*
X13234719Y-14263028D01*
X13234719Y-14263028D02*
X13225195Y-14224933D01*
X13225195Y-14224933D02*
X13225195Y-14177314D01*
X13225195Y-14177314D02*
X13234719Y-14139219D01*
X13234719Y-14139219D02*
X13244243Y-14120171D01*
X13244243Y-14120171D02*
X13253767Y-14110648D01*
X13253767Y-14110648D02*
X13272814Y-14101124D01*
X13425195Y-14282076D02*
X13434719Y-14291600D01*
X13434719Y-14291600D02*
X13425195Y-14301124D01*
X13425195Y-14301124D02*
X13415671Y-14291600D01*
X13415671Y-14291600D02*
X13425195Y-14282076D01*
X13425195Y-14282076D02*
X13425195Y-14301124D01*
X13549005Y-14186838D02*
X13529957Y-14177314D01*
X13529957Y-14177314D02*
X13520433Y-14167790D01*
X13520433Y-14167790D02*
X13510909Y-14148743D01*
X13510909Y-14148743D02*
X13510909Y-14139219D01*
X13510909Y-14139219D02*
X13520433Y-14120171D01*
X13520433Y-14120171D02*
X13529957Y-14110648D01*
X13529957Y-14110648D02*
X13549005Y-14101124D01*
X13549005Y-14101124D02*
X13587100Y-14101124D01*
X13587100Y-14101124D02*
X13606148Y-14110648D01*
X13606148Y-14110648D02*
X13615671Y-14120171D01*
X13615671Y-14120171D02*
X13625195Y-14139219D01*
X13625195Y-14139219D02*
X13625195Y-14148743D01*
X13625195Y-14148743D02*
X13615671Y-14167790D01*
X13615671Y-14167790D02*
X13606148Y-14177314D01*
X13606148Y-14177314D02*
X13587100Y-14186838D01*
X13587100Y-14186838D02*
X13549005Y-14186838D01*
X13549005Y-14186838D02*
X13529957Y-14196362D01*
X13529957Y-14196362D02*
X13520433Y-14205886D01*
X13520433Y-14205886D02*
X13510909Y-14224933D01*
X13510909Y-14224933D02*
X13510909Y-14263028D01*
X13510909Y-14263028D02*
X13520433Y-14282076D01*
X13520433Y-14282076D02*
X13529957Y-14291600D01*
X13529957Y-14291600D02*
X13549005Y-14301124D01*
X13549005Y-14301124D02*
X13587100Y-14301124D01*
X13587100Y-14301124D02*
X13606148Y-14291600D01*
X13606148Y-14291600D02*
X13615671Y-14282076D01*
X13615671Y-14282076D02*
X13625195Y-14263028D01*
X13625195Y-14263028D02*
X13625195Y-14224933D01*
X13625195Y-14224933D02*
X13615671Y-14205886D01*
X13615671Y-14205886D02*
X13606148Y-14196362D01*
X13606148Y-14196362D02*
X13587100Y-14186838D01*
X13749005Y-14101124D02*
X13768052Y-14101124D01*
X13768052Y-14101124D02*
X13787100Y-14110648D01*
X13787100Y-14110648D02*
X13796624Y-14120171D01*
X13796624Y-14120171D02*
X13806148Y-14139219D01*
X13806148Y-14139219D02*
X13815671Y-14177314D01*
X13815671Y-14177314D02*
X13815671Y-14224933D01*
X13815671Y-14224933D02*
X13806148Y-14263028D01*
X13806148Y-14263028D02*
X13796624Y-14282076D01*
X13796624Y-14282076D02*
X13787100Y-14291600D01*
X13787100Y-14291600D02*
X13768052Y-14301124D01*
X13768052Y-14301124D02*
X13749005Y-14301124D01*
X13749005Y-14301124D02*
X13729957Y-14291600D01*
X13729957Y-14291600D02*
X13720433Y-14282076D01*
X13720433Y-14282076D02*
X13710909Y-14263028D01*
X13710909Y-14263028D02*
X13701386Y-14224933D01*
X13701386Y-14224933D02*
X13701386Y-14177314D01*
X13701386Y-14177314D02*
X13710909Y-14139219D01*
X13710909Y-14139219D02*
X13720433Y-14120171D01*
X13720433Y-14120171D02*
X13729957Y-14110648D01*
X13729957Y-14110648D02*
X13749005Y-14101124D01*
X13939481Y-14101124D02*
X13958529Y-14101124D01*
X13958529Y-14101124D02*
X13977576Y-14110648D01*
X13977576Y-14110648D02*
X13987100Y-14120171D01*
X13987100Y-14120171D02*
X13996624Y-14139219D01*
X13996624Y-14139219D02*
X14006148Y-14177314D01*
X14006148Y-14177314D02*
X14006148Y-14224933D01*
X14006148Y-14224933D02*
X13996624Y-14263028D01*
X13996624Y-14263028D02*
X13987100Y-14282076D01*
X13987100Y-14282076D02*
X13977576Y-14291600D01*
X13977576Y-14291600D02*
X13958529Y-14301124D01*
X13958529Y-14301124D02*
X13939481Y-14301124D01*
X13939481Y-14301124D02*
X13920433Y-14291600D01*
X13920433Y-14291600D02*
X13910909Y-14282076D01*
X13910909Y-14282076D02*
X13901386Y-14263028D01*
X13901386Y-14263028D02*
X13891862Y-14224933D01*
X13891862Y-14224933D02*
X13891862Y-14177314D01*
X13891862Y-14177314D02*
X13901386Y-14139219D01*
X13901386Y-14139219D02*
X13910909Y-14120171D01*
X13910909Y-14120171D02*
X13920433Y-14110648D01*
X13920433Y-14110648D02*
X13939481Y-14101124D01*
X14091862Y-14301124D02*
X14091862Y-14167790D01*
X14091862Y-14186838D02*
X14101386Y-14177314D01*
X14101386Y-14177314D02*
X14120433Y-14167790D01*
X14120433Y-14167790D02*
X14149005Y-14167790D01*
X14149005Y-14167790D02*
X14168052Y-14177314D01*
X14168052Y-14177314D02*
X14177576Y-14196362D01*
X14177576Y-14196362D02*
X14177576Y-14301124D01*
X14177576Y-14196362D02*
X14187100Y-14177314D01*
X14187100Y-14177314D02*
X14206148Y-14167790D01*
X14206148Y-14167790D02*
X14234719Y-14167790D01*
X14234719Y-14167790D02*
X14253767Y-14177314D01*
X14253767Y-14177314D02*
X14263290Y-14196362D01*
X14263290Y-14196362D02*
X14263290Y-14301124D01*
X14358529Y-14301124D02*
X14358529Y-14167790D01*
X14358529Y-14186838D02*
X14368052Y-14177314D01*
X14368052Y-14177314D02*
X14387100Y-14167790D01*
X14387100Y-14167790D02*
X14415671Y-14167790D01*
X14415671Y-14167790D02*
X14434719Y-14177314D01*
X14434719Y-14177314D02*
X14444243Y-14196362D01*
X14444243Y-14196362D02*
X14444243Y-14301124D01*
X14444243Y-14196362D02*
X14453767Y-14177314D01*
X14453767Y-14177314D02*
X14472814Y-14167790D01*
X14472814Y-14167790D02*
X14501386Y-14167790D01*
X14501386Y-14167790D02*
X14520433Y-14177314D01*
X14520433Y-14177314D02*
X14529957Y-14196362D01*
X14529957Y-14196362D02*
X14529957Y-14301124D01*
X14920433Y-14091600D02*
X14749005Y-14348743D01*
X15177576Y-14101124D02*
X15196624Y-14101124D01*
X15196624Y-14101124D02*
X15215672Y-14110648D01*
X15215672Y-14110648D02*
X15225195Y-14120171D01*
X15225195Y-14120171D02*
X15234719Y-14139219D01*
X15234719Y-14139219D02*
X15244243Y-14177314D01*
X15244243Y-14177314D02*
X15244243Y-14224933D01*
X15244243Y-14224933D02*
X15234719Y-14263028D01*
X15234719Y-14263028D02*
X15225195Y-14282076D01*
X15225195Y-14282076D02*
X15215672Y-14291600D01*
X15215672Y-14291600D02*
X15196624Y-14301124D01*
X15196624Y-14301124D02*
X15177576Y-14301124D01*
X15177576Y-14301124D02*
X15158529Y-14291600D01*
X15158529Y-14291600D02*
X15149005Y-14282076D01*
X15149005Y-14282076D02*
X15139481Y-14263028D01*
X15139481Y-14263028D02*
X15129957Y-14224933D01*
X15129957Y-14224933D02*
X15129957Y-14177314D01*
X15129957Y-14177314D02*
X15139481Y-14139219D01*
X15139481Y-14139219D02*
X15149005Y-14120171D01*
X15149005Y-14120171D02*
X15158529Y-14110648D01*
X15158529Y-14110648D02*
X15177576Y-14101124D01*
X15329957Y-14282076D02*
X15339481Y-14291600D01*
X15339481Y-14291600D02*
X15329957Y-14301124D01*
X15329957Y-14301124D02*
X15320433Y-14291600D01*
X15320433Y-14291600D02*
X15329957Y-14282076D01*
X15329957Y-14282076D02*
X15329957Y-14301124D01*
X15463291Y-14101124D02*
X15482338Y-14101124D01*
X15482338Y-14101124D02*
X15501386Y-14110648D01*
X15501386Y-14110648D02*
X15510910Y-14120171D01*
X15510910Y-14120171D02*
X15520433Y-14139219D01*
X15520433Y-14139219D02*
X15529957Y-14177314D01*
X15529957Y-14177314D02*
X15529957Y-14224933D01*
X15529957Y-14224933D02*
X15520433Y-14263028D01*
X15520433Y-14263028D02*
X15510910Y-14282076D01*
X15510910Y-14282076D02*
X15501386Y-14291600D01*
X15501386Y-14291600D02*
X15482338Y-14301124D01*
X15482338Y-14301124D02*
X15463291Y-14301124D01*
X15463291Y-14301124D02*
X15444243Y-14291600D01*
X15444243Y-14291600D02*
X15434719Y-14282076D01*
X15434719Y-14282076D02*
X15425195Y-14263028D01*
X15425195Y-14263028D02*
X15415672Y-14224933D01*
X15415672Y-14224933D02*
X15415672Y-14177314D01*
X15415672Y-14177314D02*
X15425195Y-14139219D01*
X15425195Y-14139219D02*
X15434719Y-14120171D01*
X15434719Y-14120171D02*
X15444243Y-14110648D01*
X15444243Y-14110648D02*
X15463291Y-14101124D01*
X15596624Y-14101124D02*
X15720433Y-14101124D01*
X15720433Y-14101124D02*
X15653767Y-14177314D01*
X15653767Y-14177314D02*
X15682338Y-14177314D01*
X15682338Y-14177314D02*
X15701386Y-14186838D01*
X15701386Y-14186838D02*
X15710910Y-14196362D01*
X15710910Y-14196362D02*
X15720433Y-14215409D01*
X15720433Y-14215409D02*
X15720433Y-14263028D01*
X15720433Y-14263028D02*
X15710910Y-14282076D01*
X15710910Y-14282076D02*
X15701386Y-14291600D01*
X15701386Y-14291600D02*
X15682338Y-14301124D01*
X15682338Y-14301124D02*
X15625195Y-14301124D01*
X15625195Y-14301124D02*
X15606148Y-14291600D01*
X15606148Y-14291600D02*
X15596624Y-14282076D01*
X15910910Y-14301124D02*
X15796624Y-14301124D01*
X15853767Y-14301124D02*
X15853767Y-14101124D01*
X15853767Y-14101124D02*
X15834719Y-14129695D01*
X15834719Y-14129695D02*
X15815672Y-14148743D01*
X15815672Y-14148743D02*
X15796624Y-14158267D01*
X16091862Y-14101124D02*
X15996624Y-14101124D01*
X15996624Y-14101124D02*
X15987100Y-14196362D01*
X15987100Y-14196362D02*
X15996624Y-14186838D01*
X15996624Y-14186838D02*
X16015672Y-14177314D01*
X16015672Y-14177314D02*
X16063291Y-14177314D01*
X16063291Y-14177314D02*
X16082338Y-14186838D01*
X16082338Y-14186838D02*
X16091862Y-14196362D01*
X16091862Y-14196362D02*
X16101386Y-14215409D01*
X16101386Y-14215409D02*
X16101386Y-14263028D01*
X16101386Y-14263028D02*
X16091862Y-14282076D01*
X16091862Y-14282076D02*
X16082338Y-14291600D01*
X16082338Y-14291600D02*
X16063291Y-14301124D01*
X16063291Y-14301124D02*
X16015672Y-14301124D01*
X16015672Y-14301124D02*
X15996624Y-14291600D01*
X15996624Y-14291600D02*
X15987100Y-14282076D01*
X16177576Y-14101124D02*
X16177576Y-14139219D01*
X16253767Y-14101124D02*
X16253767Y-14139219D01*
X16549005Y-14377314D02*
X16539481Y-14367790D01*
X16539481Y-14367790D02*
X16520434Y-14339219D01*
X16520434Y-14339219D02*
X16510910Y-14320171D01*
X16510910Y-14320171D02*
X16501386Y-14291600D01*
X16501386Y-14291600D02*
X16491862Y-14243981D01*
X16491862Y-14243981D02*
X16491862Y-14205886D01*
X16491862Y-14205886D02*
X16501386Y-14158267D01*
X16501386Y-14158267D02*
X16510910Y-14129695D01*
X16510910Y-14129695D02*
X16520434Y-14110648D01*
X16520434Y-14110648D02*
X16539481Y-14082076D01*
X16539481Y-14082076D02*
X16549005Y-14072552D01*
X16615672Y-14120171D02*
X16625195Y-14110648D01*
X16625195Y-14110648D02*
X16644243Y-14101124D01*
X16644243Y-14101124D02*
X16691862Y-14101124D01*
X16691862Y-14101124D02*
X16710910Y-14110648D01*
X16710910Y-14110648D02*
X16720434Y-14120171D01*
X16720434Y-14120171D02*
X16729957Y-14139219D01*
X16729957Y-14139219D02*
X16729957Y-14158267D01*
X16729957Y-14158267D02*
X16720434Y-14186838D01*
X16720434Y-14186838D02*
X16606148Y-14301124D01*
X16606148Y-14301124D02*
X16729957Y-14301124D01*
X16968053Y-14301124D02*
X16968053Y-14101124D01*
X17053767Y-14301124D02*
X17053767Y-14196362D01*
X17053767Y-14196362D02*
X17044243Y-14177314D01*
X17044243Y-14177314D02*
X17025196Y-14167790D01*
X17025196Y-14167790D02*
X16996624Y-14167790D01*
X16996624Y-14167790D02*
X16977577Y-14177314D01*
X16977577Y-14177314D02*
X16968053Y-14186838D01*
X17177577Y-14301124D02*
X17158529Y-14291600D01*
X17158529Y-14291600D02*
X17149005Y-14282076D01*
X17149005Y-14282076D02*
X17139481Y-14263028D01*
X17139481Y-14263028D02*
X17139481Y-14205886D01*
X17139481Y-14205886D02*
X17149005Y-14186838D01*
X17149005Y-14186838D02*
X17158529Y-14177314D01*
X17158529Y-14177314D02*
X17177577Y-14167790D01*
X17177577Y-14167790D02*
X17206148Y-14167790D01*
X17206148Y-14167790D02*
X17225196Y-14177314D01*
X17225196Y-14177314D02*
X17234719Y-14186838D01*
X17234719Y-14186838D02*
X17244243Y-14205886D01*
X17244243Y-14205886D02*
X17244243Y-14263028D01*
X17244243Y-14263028D02*
X17234719Y-14282076D01*
X17234719Y-14282076D02*
X17225196Y-14291600D01*
X17225196Y-14291600D02*
X17206148Y-14301124D01*
X17206148Y-14301124D02*
X17177577Y-14301124D01*
X17358529Y-14301124D02*
X17339481Y-14291600D01*
X17339481Y-14291600D02*
X17329958Y-14272552D01*
X17329958Y-14272552D02*
X17329958Y-14101124D01*
X17510910Y-14291600D02*
X17491862Y-14301124D01*
X17491862Y-14301124D02*
X17453767Y-14301124D01*
X17453767Y-14301124D02*
X17434719Y-14291600D01*
X17434719Y-14291600D02*
X17425196Y-14272552D01*
X17425196Y-14272552D02*
X17425196Y-14196362D01*
X17425196Y-14196362D02*
X17434719Y-14177314D01*
X17434719Y-14177314D02*
X17453767Y-14167790D01*
X17453767Y-14167790D02*
X17491862Y-14167790D01*
X17491862Y-14167790D02*
X17510910Y-14177314D01*
X17510910Y-14177314D02*
X17520434Y-14196362D01*
X17520434Y-14196362D02*
X17520434Y-14215409D01*
X17520434Y-14215409D02*
X17425196Y-14234457D01*
X17596624Y-14291600D02*
X17615672Y-14301124D01*
X17615672Y-14301124D02*
X17653767Y-14301124D01*
X17653767Y-14301124D02*
X17672815Y-14291600D01*
X17672815Y-14291600D02*
X17682339Y-14272552D01*
X17682339Y-14272552D02*
X17682339Y-14263028D01*
X17682339Y-14263028D02*
X17672815Y-14243981D01*
X17672815Y-14243981D02*
X17653767Y-14234457D01*
X17653767Y-14234457D02*
X17625196Y-14234457D01*
X17625196Y-14234457D02*
X17606148Y-14224933D01*
X17606148Y-14224933D02*
X17596624Y-14205886D01*
X17596624Y-14205886D02*
X17596624Y-14196362D01*
X17596624Y-14196362D02*
X17606148Y-14177314D01*
X17606148Y-14177314D02*
X17625196Y-14167790D01*
X17625196Y-14167790D02*
X17653767Y-14167790D01*
X17653767Y-14167790D02*
X17672815Y-14177314D01*
X17749005Y-14377314D02*
X17758529Y-14367790D01*
X17758529Y-14367790D02*
X17777577Y-14339219D01*
X17777577Y-14339219D02*
X17787100Y-14320171D01*
X17787100Y-14320171D02*
X17796624Y-14291600D01*
X17796624Y-14291600D02*
X17806148Y-14243981D01*
X17806148Y-14243981D02*
X17806148Y-14205886D01*
X17806148Y-14205886D02*
X17796624Y-14158267D01*
X17796624Y-14158267D02*
X17787100Y-14129695D01*
X17787100Y-14129695D02*
X17777577Y-14110648D01*
X17777577Y-14110648D02*
X17758529Y-14082076D01*
X17758529Y-14082076D02*
X17749005Y-14072552D01*
D13*
X12987100Y-14472600D02*
G75*
G03*
X12987100Y-14472600I-47500J0D01*
G01*
D11*
X13272814Y-14365124D02*
X13291862Y-14365124D01*
X13291862Y-14365124D02*
X13310909Y-14374648D01*
X13310909Y-14374648D02*
X13320433Y-14384171D01*
X13320433Y-14384171D02*
X13329957Y-14403219D01*
X13329957Y-14403219D02*
X13339481Y-14441314D01*
X13339481Y-14441314D02*
X13339481Y-14488933D01*
X13339481Y-14488933D02*
X13329957Y-14527028D01*
X13329957Y-14527028D02*
X13320433Y-14546076D01*
X13320433Y-14546076D02*
X13310909Y-14555600D01*
X13310909Y-14555600D02*
X13291862Y-14565124D01*
X13291862Y-14565124D02*
X13272814Y-14565124D01*
X13272814Y-14565124D02*
X13253767Y-14555600D01*
X13253767Y-14555600D02*
X13244243Y-14546076D01*
X13244243Y-14546076D02*
X13234719Y-14527028D01*
X13234719Y-14527028D02*
X13225195Y-14488933D01*
X13225195Y-14488933D02*
X13225195Y-14441314D01*
X13225195Y-14441314D02*
X13234719Y-14403219D01*
X13234719Y-14403219D02*
X13244243Y-14384171D01*
X13244243Y-14384171D02*
X13253767Y-14374648D01*
X13253767Y-14374648D02*
X13272814Y-14365124D01*
X13425195Y-14546076D02*
X13434719Y-14555600D01*
X13434719Y-14555600D02*
X13425195Y-14565124D01*
X13425195Y-14565124D02*
X13415671Y-14555600D01*
X13415671Y-14555600D02*
X13425195Y-14546076D01*
X13425195Y-14546076D02*
X13425195Y-14565124D01*
X13529957Y-14565124D02*
X13568052Y-14565124D01*
X13568052Y-14565124D02*
X13587100Y-14555600D01*
X13587100Y-14555600D02*
X13596624Y-14546076D01*
X13596624Y-14546076D02*
X13615671Y-14517505D01*
X13615671Y-14517505D02*
X13625195Y-14479409D01*
X13625195Y-14479409D02*
X13625195Y-14403219D01*
X13625195Y-14403219D02*
X13615671Y-14384171D01*
X13615671Y-14384171D02*
X13606148Y-14374648D01*
X13606148Y-14374648D02*
X13587100Y-14365124D01*
X13587100Y-14365124D02*
X13549005Y-14365124D01*
X13549005Y-14365124D02*
X13529957Y-14374648D01*
X13529957Y-14374648D02*
X13520433Y-14384171D01*
X13520433Y-14384171D02*
X13510909Y-14403219D01*
X13510909Y-14403219D02*
X13510909Y-14450838D01*
X13510909Y-14450838D02*
X13520433Y-14469886D01*
X13520433Y-14469886D02*
X13529957Y-14479409D01*
X13529957Y-14479409D02*
X13549005Y-14488933D01*
X13549005Y-14488933D02*
X13587100Y-14488933D01*
X13587100Y-14488933D02*
X13606148Y-14479409D01*
X13606148Y-14479409D02*
X13615671Y-14469886D01*
X13615671Y-14469886D02*
X13625195Y-14450838D01*
X13806148Y-14365124D02*
X13710909Y-14365124D01*
X13710909Y-14365124D02*
X13701386Y-14460362D01*
X13701386Y-14460362D02*
X13710909Y-14450838D01*
X13710909Y-14450838D02*
X13729957Y-14441314D01*
X13729957Y-14441314D02*
X13777576Y-14441314D01*
X13777576Y-14441314D02*
X13796624Y-14450838D01*
X13796624Y-14450838D02*
X13806148Y-14460362D01*
X13806148Y-14460362D02*
X13815671Y-14479409D01*
X13815671Y-14479409D02*
X13815671Y-14527028D01*
X13815671Y-14527028D02*
X13806148Y-14546076D01*
X13806148Y-14546076D02*
X13796624Y-14555600D01*
X13796624Y-14555600D02*
X13777576Y-14565124D01*
X13777576Y-14565124D02*
X13729957Y-14565124D01*
X13729957Y-14565124D02*
X13710909Y-14555600D01*
X13710909Y-14555600D02*
X13701386Y-14546076D01*
X13939481Y-14365124D02*
X13958529Y-14365124D01*
X13958529Y-14365124D02*
X13977576Y-14374648D01*
X13977576Y-14374648D02*
X13987100Y-14384171D01*
X13987100Y-14384171D02*
X13996624Y-14403219D01*
X13996624Y-14403219D02*
X14006148Y-14441314D01*
X14006148Y-14441314D02*
X14006148Y-14488933D01*
X14006148Y-14488933D02*
X13996624Y-14527028D01*
X13996624Y-14527028D02*
X13987100Y-14546076D01*
X13987100Y-14546076D02*
X13977576Y-14555600D01*
X13977576Y-14555600D02*
X13958529Y-14565124D01*
X13958529Y-14565124D02*
X13939481Y-14565124D01*
X13939481Y-14565124D02*
X13920433Y-14555600D01*
X13920433Y-14555600D02*
X13910909Y-14546076D01*
X13910909Y-14546076D02*
X13901386Y-14527028D01*
X13901386Y-14527028D02*
X13891862Y-14488933D01*
X13891862Y-14488933D02*
X13891862Y-14441314D01*
X13891862Y-14441314D02*
X13901386Y-14403219D01*
X13901386Y-14403219D02*
X13910909Y-14384171D01*
X13910909Y-14384171D02*
X13920433Y-14374648D01*
X13920433Y-14374648D02*
X13939481Y-14365124D01*
X14091862Y-14565124D02*
X14091862Y-14431790D01*
X14091862Y-14450838D02*
X14101386Y-14441314D01*
X14101386Y-14441314D02*
X14120433Y-14431790D01*
X14120433Y-14431790D02*
X14149005Y-14431790D01*
X14149005Y-14431790D02*
X14168052Y-14441314D01*
X14168052Y-14441314D02*
X14177576Y-14460362D01*
X14177576Y-14460362D02*
X14177576Y-14565124D01*
X14177576Y-14460362D02*
X14187100Y-14441314D01*
X14187100Y-14441314D02*
X14206148Y-14431790D01*
X14206148Y-14431790D02*
X14234719Y-14431790D01*
X14234719Y-14431790D02*
X14253767Y-14441314D01*
X14253767Y-14441314D02*
X14263290Y-14460362D01*
X14263290Y-14460362D02*
X14263290Y-14565124D01*
X14358529Y-14565124D02*
X14358529Y-14431790D01*
X14358529Y-14450838D02*
X14368052Y-14441314D01*
X14368052Y-14441314D02*
X14387100Y-14431790D01*
X14387100Y-14431790D02*
X14415671Y-14431790D01*
X14415671Y-14431790D02*
X14434719Y-14441314D01*
X14434719Y-14441314D02*
X14444243Y-14460362D01*
X14444243Y-14460362D02*
X14444243Y-14565124D01*
X14444243Y-14460362D02*
X14453767Y-14441314D01*
X14453767Y-14441314D02*
X14472814Y-14431790D01*
X14472814Y-14431790D02*
X14501386Y-14431790D01*
X14501386Y-14431790D02*
X14520433Y-14441314D01*
X14520433Y-14441314D02*
X14529957Y-14460362D01*
X14529957Y-14460362D02*
X14529957Y-14565124D01*
X14920433Y-14355600D02*
X14749005Y-14612743D01*
X15177576Y-14365124D02*
X15196624Y-14365124D01*
X15196624Y-14365124D02*
X15215672Y-14374648D01*
X15215672Y-14374648D02*
X15225195Y-14384171D01*
X15225195Y-14384171D02*
X15234719Y-14403219D01*
X15234719Y-14403219D02*
X15244243Y-14441314D01*
X15244243Y-14441314D02*
X15244243Y-14488933D01*
X15244243Y-14488933D02*
X15234719Y-14527028D01*
X15234719Y-14527028D02*
X15225195Y-14546076D01*
X15225195Y-14546076D02*
X15215672Y-14555600D01*
X15215672Y-14555600D02*
X15196624Y-14565124D01*
X15196624Y-14565124D02*
X15177576Y-14565124D01*
X15177576Y-14565124D02*
X15158529Y-14555600D01*
X15158529Y-14555600D02*
X15149005Y-14546076D01*
X15149005Y-14546076D02*
X15139481Y-14527028D01*
X15139481Y-14527028D02*
X15129957Y-14488933D01*
X15129957Y-14488933D02*
X15129957Y-14441314D01*
X15129957Y-14441314D02*
X15139481Y-14403219D01*
X15139481Y-14403219D02*
X15149005Y-14384171D01*
X15149005Y-14384171D02*
X15158529Y-14374648D01*
X15158529Y-14374648D02*
X15177576Y-14365124D01*
X15329957Y-14546076D02*
X15339481Y-14555600D01*
X15339481Y-14555600D02*
X15329957Y-14565124D01*
X15329957Y-14565124D02*
X15320433Y-14555600D01*
X15320433Y-14555600D02*
X15329957Y-14546076D01*
X15329957Y-14546076D02*
X15329957Y-14565124D01*
X15463291Y-14365124D02*
X15482338Y-14365124D01*
X15482338Y-14365124D02*
X15501386Y-14374648D01*
X15501386Y-14374648D02*
X15510910Y-14384171D01*
X15510910Y-14384171D02*
X15520433Y-14403219D01*
X15520433Y-14403219D02*
X15529957Y-14441314D01*
X15529957Y-14441314D02*
X15529957Y-14488933D01*
X15529957Y-14488933D02*
X15520433Y-14527028D01*
X15520433Y-14527028D02*
X15510910Y-14546076D01*
X15510910Y-14546076D02*
X15501386Y-14555600D01*
X15501386Y-14555600D02*
X15482338Y-14565124D01*
X15482338Y-14565124D02*
X15463291Y-14565124D01*
X15463291Y-14565124D02*
X15444243Y-14555600D01*
X15444243Y-14555600D02*
X15434719Y-14546076D01*
X15434719Y-14546076D02*
X15425195Y-14527028D01*
X15425195Y-14527028D02*
X15415672Y-14488933D01*
X15415672Y-14488933D02*
X15415672Y-14441314D01*
X15415672Y-14441314D02*
X15425195Y-14403219D01*
X15425195Y-14403219D02*
X15434719Y-14384171D01*
X15434719Y-14384171D02*
X15444243Y-14374648D01*
X15444243Y-14374648D02*
X15463291Y-14365124D01*
X15596624Y-14365124D02*
X15720433Y-14365124D01*
X15720433Y-14365124D02*
X15653767Y-14441314D01*
X15653767Y-14441314D02*
X15682338Y-14441314D01*
X15682338Y-14441314D02*
X15701386Y-14450838D01*
X15701386Y-14450838D02*
X15710910Y-14460362D01*
X15710910Y-14460362D02*
X15720433Y-14479409D01*
X15720433Y-14479409D02*
X15720433Y-14527028D01*
X15720433Y-14527028D02*
X15710910Y-14546076D01*
X15710910Y-14546076D02*
X15701386Y-14555600D01*
X15701386Y-14555600D02*
X15682338Y-14565124D01*
X15682338Y-14565124D02*
X15625195Y-14565124D01*
X15625195Y-14565124D02*
X15606148Y-14555600D01*
X15606148Y-14555600D02*
X15596624Y-14546076D01*
X15787100Y-14365124D02*
X15920433Y-14365124D01*
X15920433Y-14365124D02*
X15834719Y-14565124D01*
X16082338Y-14431790D02*
X16082338Y-14565124D01*
X16034719Y-14355600D02*
X15987100Y-14498457D01*
X15987100Y-14498457D02*
X16110910Y-14498457D01*
X16177576Y-14365124D02*
X16177576Y-14403219D01*
X16253767Y-14365124D02*
X16253767Y-14403219D01*
X16549005Y-14641314D02*
X16539481Y-14631790D01*
X16539481Y-14631790D02*
X16520434Y-14603219D01*
X16520434Y-14603219D02*
X16510910Y-14584171D01*
X16510910Y-14584171D02*
X16501386Y-14555600D01*
X16501386Y-14555600D02*
X16491862Y-14507981D01*
X16491862Y-14507981D02*
X16491862Y-14469886D01*
X16491862Y-14469886D02*
X16501386Y-14422267D01*
X16501386Y-14422267D02*
X16510910Y-14393695D01*
X16510910Y-14393695D02*
X16520434Y-14374648D01*
X16520434Y-14374648D02*
X16539481Y-14346076D01*
X16539481Y-14346076D02*
X16549005Y-14336552D01*
X16729957Y-14565124D02*
X16615672Y-14565124D01*
X16672814Y-14565124D02*
X16672814Y-14365124D01*
X16672814Y-14365124D02*
X16653767Y-14393695D01*
X16653767Y-14393695D02*
X16634719Y-14412743D01*
X16634719Y-14412743D02*
X16615672Y-14422267D01*
X16844243Y-14450838D02*
X16825196Y-14441314D01*
X16825196Y-14441314D02*
X16815672Y-14431790D01*
X16815672Y-14431790D02*
X16806148Y-14412743D01*
X16806148Y-14412743D02*
X16806148Y-14403219D01*
X16806148Y-14403219D02*
X16815672Y-14384171D01*
X16815672Y-14384171D02*
X16825196Y-14374648D01*
X16825196Y-14374648D02*
X16844243Y-14365124D01*
X16844243Y-14365124D02*
X16882338Y-14365124D01*
X16882338Y-14365124D02*
X16901386Y-14374648D01*
X16901386Y-14374648D02*
X16910910Y-14384171D01*
X16910910Y-14384171D02*
X16920434Y-14403219D01*
X16920434Y-14403219D02*
X16920434Y-14412743D01*
X16920434Y-14412743D02*
X16910910Y-14431790D01*
X16910910Y-14431790D02*
X16901386Y-14441314D01*
X16901386Y-14441314D02*
X16882338Y-14450838D01*
X16882338Y-14450838D02*
X16844243Y-14450838D01*
X16844243Y-14450838D02*
X16825196Y-14460362D01*
X16825196Y-14460362D02*
X16815672Y-14469886D01*
X16815672Y-14469886D02*
X16806148Y-14488933D01*
X16806148Y-14488933D02*
X16806148Y-14527028D01*
X16806148Y-14527028D02*
X16815672Y-14546076D01*
X16815672Y-14546076D02*
X16825196Y-14555600D01*
X16825196Y-14555600D02*
X16844243Y-14565124D01*
X16844243Y-14565124D02*
X16882338Y-14565124D01*
X16882338Y-14565124D02*
X16901386Y-14555600D01*
X16901386Y-14555600D02*
X16910910Y-14546076D01*
X16910910Y-14546076D02*
X16920434Y-14527028D01*
X16920434Y-14527028D02*
X16920434Y-14488933D01*
X16920434Y-14488933D02*
X16910910Y-14469886D01*
X16910910Y-14469886D02*
X16901386Y-14460362D01*
X16901386Y-14460362D02*
X16882338Y-14450838D01*
X17158529Y-14565124D02*
X17158529Y-14365124D01*
X17244243Y-14565124D02*
X17244243Y-14460362D01*
X17244243Y-14460362D02*
X17234719Y-14441314D01*
X17234719Y-14441314D02*
X17215672Y-14431790D01*
X17215672Y-14431790D02*
X17187100Y-14431790D01*
X17187100Y-14431790D02*
X17168053Y-14441314D01*
X17168053Y-14441314D02*
X17158529Y-14450838D01*
X17368053Y-14565124D02*
X17349005Y-14555600D01*
X17349005Y-14555600D02*
X17339481Y-14546076D01*
X17339481Y-14546076D02*
X17329958Y-14527028D01*
X17329958Y-14527028D02*
X17329958Y-14469886D01*
X17329958Y-14469886D02*
X17339481Y-14450838D01*
X17339481Y-14450838D02*
X17349005Y-14441314D01*
X17349005Y-14441314D02*
X17368053Y-14431790D01*
X17368053Y-14431790D02*
X17396624Y-14431790D01*
X17396624Y-14431790D02*
X17415672Y-14441314D01*
X17415672Y-14441314D02*
X17425196Y-14450838D01*
X17425196Y-14450838D02*
X17434719Y-14469886D01*
X17434719Y-14469886D02*
X17434719Y-14527028D01*
X17434719Y-14527028D02*
X17425196Y-14546076D01*
X17425196Y-14546076D02*
X17415672Y-14555600D01*
X17415672Y-14555600D02*
X17396624Y-14565124D01*
X17396624Y-14565124D02*
X17368053Y-14565124D01*
X17549005Y-14565124D02*
X17529958Y-14555600D01*
X17529958Y-14555600D02*
X17520434Y-14536552D01*
X17520434Y-14536552D02*
X17520434Y-14365124D01*
X17701386Y-14555600D02*
X17682339Y-14565124D01*
X17682339Y-14565124D02*
X17644243Y-14565124D01*
X17644243Y-14565124D02*
X17625196Y-14555600D01*
X17625196Y-14555600D02*
X17615672Y-14536552D01*
X17615672Y-14536552D02*
X17615672Y-14460362D01*
X17615672Y-14460362D02*
X17625196Y-14441314D01*
X17625196Y-14441314D02*
X17644243Y-14431790D01*
X17644243Y-14431790D02*
X17682339Y-14431790D01*
X17682339Y-14431790D02*
X17701386Y-14441314D01*
X17701386Y-14441314D02*
X17710910Y-14460362D01*
X17710910Y-14460362D02*
X17710910Y-14479409D01*
X17710910Y-14479409D02*
X17615672Y-14498457D01*
X17787100Y-14555600D02*
X17806148Y-14565124D01*
X17806148Y-14565124D02*
X17844243Y-14565124D01*
X17844243Y-14565124D02*
X17863291Y-14555600D01*
X17863291Y-14555600D02*
X17872815Y-14536552D01*
X17872815Y-14536552D02*
X17872815Y-14527028D01*
X17872815Y-14527028D02*
X17863291Y-14507981D01*
X17863291Y-14507981D02*
X17844243Y-14498457D01*
X17844243Y-14498457D02*
X17815672Y-14498457D01*
X17815672Y-14498457D02*
X17796624Y-14488933D01*
X17796624Y-14488933D02*
X17787100Y-14469886D01*
X17787100Y-14469886D02*
X17787100Y-14460362D01*
X17787100Y-14460362D02*
X17796624Y-14441314D01*
X17796624Y-14441314D02*
X17815672Y-14431790D01*
X17815672Y-14431790D02*
X17844243Y-14431790D01*
X17844243Y-14431790D02*
X17863291Y-14441314D01*
X17939481Y-14641314D02*
X17949005Y-14631790D01*
X17949005Y-14631790D02*
X17968053Y-14603219D01*
X17968053Y-14603219D02*
X17977577Y-14584171D01*
X17977577Y-14584171D02*
X17987100Y-14555600D01*
X17987100Y-14555600D02*
X17996624Y-14507981D01*
X17996624Y-14507981D02*
X17996624Y-14469886D01*
X17996624Y-14469886D02*
X17987100Y-14422267D01*
X17987100Y-14422267D02*
X17977577Y-14393695D01*
X17977577Y-14393695D02*
X17968053Y-14374648D01*
X17968053Y-14374648D02*
X17949005Y-14346076D01*
X17949005Y-14346076D02*
X17939481Y-14336552D01*
D10*
X12937100Y-14686600D02*
X12937100Y-14786600D01*
X12887100Y-14736600D02*
X12987100Y-14736600D01*
D11*
X13339481Y-14829124D02*
X13225195Y-14829124D01*
X13282338Y-14829124D02*
X13282338Y-14629124D01*
X13282338Y-14629124D02*
X13263290Y-14657695D01*
X13263290Y-14657695D02*
X13244243Y-14676743D01*
X13244243Y-14676743D02*
X13225195Y-14686267D01*
X13425195Y-14810076D02*
X13434719Y-14819600D01*
X13434719Y-14819600D02*
X13425195Y-14829124D01*
X13425195Y-14829124D02*
X13415671Y-14819600D01*
X13415671Y-14819600D02*
X13425195Y-14810076D01*
X13425195Y-14810076D02*
X13425195Y-14829124D01*
X13558528Y-14629124D02*
X13577576Y-14629124D01*
X13577576Y-14629124D02*
X13596624Y-14638648D01*
X13596624Y-14638648D02*
X13606148Y-14648171D01*
X13606148Y-14648171D02*
X13615671Y-14667219D01*
X13615671Y-14667219D02*
X13625195Y-14705314D01*
X13625195Y-14705314D02*
X13625195Y-14752933D01*
X13625195Y-14752933D02*
X13615671Y-14791028D01*
X13615671Y-14791028D02*
X13606148Y-14810076D01*
X13606148Y-14810076D02*
X13596624Y-14819600D01*
X13596624Y-14819600D02*
X13577576Y-14829124D01*
X13577576Y-14829124D02*
X13558528Y-14829124D01*
X13558528Y-14829124D02*
X13539481Y-14819600D01*
X13539481Y-14819600D02*
X13529957Y-14810076D01*
X13529957Y-14810076D02*
X13520433Y-14791028D01*
X13520433Y-14791028D02*
X13510909Y-14752933D01*
X13510909Y-14752933D02*
X13510909Y-14705314D01*
X13510909Y-14705314D02*
X13520433Y-14667219D01*
X13520433Y-14667219D02*
X13529957Y-14648171D01*
X13529957Y-14648171D02*
X13539481Y-14638648D01*
X13539481Y-14638648D02*
X13558528Y-14629124D01*
X13749005Y-14629124D02*
X13768052Y-14629124D01*
X13768052Y-14629124D02*
X13787100Y-14638648D01*
X13787100Y-14638648D02*
X13796624Y-14648171D01*
X13796624Y-14648171D02*
X13806148Y-14667219D01*
X13806148Y-14667219D02*
X13815671Y-14705314D01*
X13815671Y-14705314D02*
X13815671Y-14752933D01*
X13815671Y-14752933D02*
X13806148Y-14791028D01*
X13806148Y-14791028D02*
X13796624Y-14810076D01*
X13796624Y-14810076D02*
X13787100Y-14819600D01*
X13787100Y-14819600D02*
X13768052Y-14829124D01*
X13768052Y-14829124D02*
X13749005Y-14829124D01*
X13749005Y-14829124D02*
X13729957Y-14819600D01*
X13729957Y-14819600D02*
X13720433Y-14810076D01*
X13720433Y-14810076D02*
X13710909Y-14791028D01*
X13710909Y-14791028D02*
X13701386Y-14752933D01*
X13701386Y-14752933D02*
X13701386Y-14705314D01*
X13701386Y-14705314D02*
X13710909Y-14667219D01*
X13710909Y-14667219D02*
X13720433Y-14648171D01*
X13720433Y-14648171D02*
X13729957Y-14638648D01*
X13729957Y-14638648D02*
X13749005Y-14629124D01*
X13939481Y-14629124D02*
X13958529Y-14629124D01*
X13958529Y-14629124D02*
X13977576Y-14638648D01*
X13977576Y-14638648D02*
X13987100Y-14648171D01*
X13987100Y-14648171D02*
X13996624Y-14667219D01*
X13996624Y-14667219D02*
X14006148Y-14705314D01*
X14006148Y-14705314D02*
X14006148Y-14752933D01*
X14006148Y-14752933D02*
X13996624Y-14791028D01*
X13996624Y-14791028D02*
X13987100Y-14810076D01*
X13987100Y-14810076D02*
X13977576Y-14819600D01*
X13977576Y-14819600D02*
X13958529Y-14829124D01*
X13958529Y-14829124D02*
X13939481Y-14829124D01*
X13939481Y-14829124D02*
X13920433Y-14819600D01*
X13920433Y-14819600D02*
X13910909Y-14810076D01*
X13910909Y-14810076D02*
X13901386Y-14791028D01*
X13901386Y-14791028D02*
X13891862Y-14752933D01*
X13891862Y-14752933D02*
X13891862Y-14705314D01*
X13891862Y-14705314D02*
X13901386Y-14667219D01*
X13901386Y-14667219D02*
X13910909Y-14648171D01*
X13910909Y-14648171D02*
X13920433Y-14638648D01*
X13920433Y-14638648D02*
X13939481Y-14629124D01*
X14091862Y-14829124D02*
X14091862Y-14695790D01*
X14091862Y-14714838D02*
X14101386Y-14705314D01*
X14101386Y-14705314D02*
X14120433Y-14695790D01*
X14120433Y-14695790D02*
X14149005Y-14695790D01*
X14149005Y-14695790D02*
X14168052Y-14705314D01*
X14168052Y-14705314D02*
X14177576Y-14724362D01*
X14177576Y-14724362D02*
X14177576Y-14829124D01*
X14177576Y-14724362D02*
X14187100Y-14705314D01*
X14187100Y-14705314D02*
X14206148Y-14695790D01*
X14206148Y-14695790D02*
X14234719Y-14695790D01*
X14234719Y-14695790D02*
X14253767Y-14705314D01*
X14253767Y-14705314D02*
X14263290Y-14724362D01*
X14263290Y-14724362D02*
X14263290Y-14829124D01*
X14358529Y-14829124D02*
X14358529Y-14695790D01*
X14358529Y-14714838D02*
X14368052Y-14705314D01*
X14368052Y-14705314D02*
X14387100Y-14695790D01*
X14387100Y-14695790D02*
X14415671Y-14695790D01*
X14415671Y-14695790D02*
X14434719Y-14705314D01*
X14434719Y-14705314D02*
X14444243Y-14724362D01*
X14444243Y-14724362D02*
X14444243Y-14829124D01*
X14444243Y-14724362D02*
X14453767Y-14705314D01*
X14453767Y-14705314D02*
X14472814Y-14695790D01*
X14472814Y-14695790D02*
X14501386Y-14695790D01*
X14501386Y-14695790D02*
X14520433Y-14705314D01*
X14520433Y-14705314D02*
X14529957Y-14724362D01*
X14529957Y-14724362D02*
X14529957Y-14829124D01*
X14920433Y-14619600D02*
X14749005Y-14876743D01*
X15177576Y-14629124D02*
X15196624Y-14629124D01*
X15196624Y-14629124D02*
X15215672Y-14638648D01*
X15215672Y-14638648D02*
X15225195Y-14648171D01*
X15225195Y-14648171D02*
X15234719Y-14667219D01*
X15234719Y-14667219D02*
X15244243Y-14705314D01*
X15244243Y-14705314D02*
X15244243Y-14752933D01*
X15244243Y-14752933D02*
X15234719Y-14791028D01*
X15234719Y-14791028D02*
X15225195Y-14810076D01*
X15225195Y-14810076D02*
X15215672Y-14819600D01*
X15215672Y-14819600D02*
X15196624Y-14829124D01*
X15196624Y-14829124D02*
X15177576Y-14829124D01*
X15177576Y-14829124D02*
X15158529Y-14819600D01*
X15158529Y-14819600D02*
X15149005Y-14810076D01*
X15149005Y-14810076D02*
X15139481Y-14791028D01*
X15139481Y-14791028D02*
X15129957Y-14752933D01*
X15129957Y-14752933D02*
X15129957Y-14705314D01*
X15129957Y-14705314D02*
X15139481Y-14667219D01*
X15139481Y-14667219D02*
X15149005Y-14648171D01*
X15149005Y-14648171D02*
X15158529Y-14638648D01*
X15158529Y-14638648D02*
X15177576Y-14629124D01*
X15329957Y-14810076D02*
X15339481Y-14819600D01*
X15339481Y-14819600D02*
X15329957Y-14829124D01*
X15329957Y-14829124D02*
X15320433Y-14819600D01*
X15320433Y-14819600D02*
X15329957Y-14810076D01*
X15329957Y-14810076D02*
X15329957Y-14829124D01*
X15463291Y-14629124D02*
X15482338Y-14629124D01*
X15482338Y-14629124D02*
X15501386Y-14638648D01*
X15501386Y-14638648D02*
X15510910Y-14648171D01*
X15510910Y-14648171D02*
X15520433Y-14667219D01*
X15520433Y-14667219D02*
X15529957Y-14705314D01*
X15529957Y-14705314D02*
X15529957Y-14752933D01*
X15529957Y-14752933D02*
X15520433Y-14791028D01*
X15520433Y-14791028D02*
X15510910Y-14810076D01*
X15510910Y-14810076D02*
X15501386Y-14819600D01*
X15501386Y-14819600D02*
X15482338Y-14829124D01*
X15482338Y-14829124D02*
X15463291Y-14829124D01*
X15463291Y-14829124D02*
X15444243Y-14819600D01*
X15444243Y-14819600D02*
X15434719Y-14810076D01*
X15434719Y-14810076D02*
X15425195Y-14791028D01*
X15425195Y-14791028D02*
X15415672Y-14752933D01*
X15415672Y-14752933D02*
X15415672Y-14705314D01*
X15415672Y-14705314D02*
X15425195Y-14667219D01*
X15425195Y-14667219D02*
X15434719Y-14648171D01*
X15434719Y-14648171D02*
X15444243Y-14638648D01*
X15444243Y-14638648D02*
X15463291Y-14629124D01*
X15596624Y-14629124D02*
X15720433Y-14629124D01*
X15720433Y-14629124D02*
X15653767Y-14705314D01*
X15653767Y-14705314D02*
X15682338Y-14705314D01*
X15682338Y-14705314D02*
X15701386Y-14714838D01*
X15701386Y-14714838D02*
X15710910Y-14724362D01*
X15710910Y-14724362D02*
X15720433Y-14743409D01*
X15720433Y-14743409D02*
X15720433Y-14791028D01*
X15720433Y-14791028D02*
X15710910Y-14810076D01*
X15710910Y-14810076D02*
X15701386Y-14819600D01*
X15701386Y-14819600D02*
X15682338Y-14829124D01*
X15682338Y-14829124D02*
X15625195Y-14829124D01*
X15625195Y-14829124D02*
X15606148Y-14819600D01*
X15606148Y-14819600D02*
X15596624Y-14810076D01*
X15815672Y-14829124D02*
X15853767Y-14829124D01*
X15853767Y-14829124D02*
X15872814Y-14819600D01*
X15872814Y-14819600D02*
X15882338Y-14810076D01*
X15882338Y-14810076D02*
X15901386Y-14781505D01*
X15901386Y-14781505D02*
X15910910Y-14743409D01*
X15910910Y-14743409D02*
X15910910Y-14667219D01*
X15910910Y-14667219D02*
X15901386Y-14648171D01*
X15901386Y-14648171D02*
X15891862Y-14638648D01*
X15891862Y-14638648D02*
X15872814Y-14629124D01*
X15872814Y-14629124D02*
X15834719Y-14629124D01*
X15834719Y-14629124D02*
X15815672Y-14638648D01*
X15815672Y-14638648D02*
X15806148Y-14648171D01*
X15806148Y-14648171D02*
X15796624Y-14667219D01*
X15796624Y-14667219D02*
X15796624Y-14714838D01*
X15796624Y-14714838D02*
X15806148Y-14733886D01*
X15806148Y-14733886D02*
X15815672Y-14743409D01*
X15815672Y-14743409D02*
X15834719Y-14752933D01*
X15834719Y-14752933D02*
X15872814Y-14752933D01*
X15872814Y-14752933D02*
X15891862Y-14743409D01*
X15891862Y-14743409D02*
X15901386Y-14733886D01*
X15901386Y-14733886D02*
X15910910Y-14714838D01*
X16082338Y-14695790D02*
X16082338Y-14829124D01*
X16034719Y-14619600D02*
X15987100Y-14762457D01*
X15987100Y-14762457D02*
X16110910Y-14762457D01*
X16177576Y-14629124D02*
X16177576Y-14667219D01*
X16253767Y-14629124D02*
X16253767Y-14667219D01*
X16549005Y-14905314D02*
X16539481Y-14895790D01*
X16539481Y-14895790D02*
X16520434Y-14867219D01*
X16520434Y-14867219D02*
X16510910Y-14848171D01*
X16510910Y-14848171D02*
X16501386Y-14819600D01*
X16501386Y-14819600D02*
X16491862Y-14771981D01*
X16491862Y-14771981D02*
X16491862Y-14733886D01*
X16491862Y-14733886D02*
X16501386Y-14686267D01*
X16501386Y-14686267D02*
X16510910Y-14657695D01*
X16510910Y-14657695D02*
X16520434Y-14638648D01*
X16520434Y-14638648D02*
X16539481Y-14610076D01*
X16539481Y-14610076D02*
X16549005Y-14600552D01*
X16729957Y-14829124D02*
X16615672Y-14829124D01*
X16672814Y-14829124D02*
X16672814Y-14629124D01*
X16672814Y-14629124D02*
X16653767Y-14657695D01*
X16653767Y-14657695D02*
X16634719Y-14676743D01*
X16634719Y-14676743D02*
X16615672Y-14686267D01*
X16844243Y-14714838D02*
X16825196Y-14705314D01*
X16825196Y-14705314D02*
X16815672Y-14695790D01*
X16815672Y-14695790D02*
X16806148Y-14676743D01*
X16806148Y-14676743D02*
X16806148Y-14667219D01*
X16806148Y-14667219D02*
X16815672Y-14648171D01*
X16815672Y-14648171D02*
X16825196Y-14638648D01*
X16825196Y-14638648D02*
X16844243Y-14629124D01*
X16844243Y-14629124D02*
X16882338Y-14629124D01*
X16882338Y-14629124D02*
X16901386Y-14638648D01*
X16901386Y-14638648D02*
X16910910Y-14648171D01*
X16910910Y-14648171D02*
X16920434Y-14667219D01*
X16920434Y-14667219D02*
X16920434Y-14676743D01*
X16920434Y-14676743D02*
X16910910Y-14695790D01*
X16910910Y-14695790D02*
X16901386Y-14705314D01*
X16901386Y-14705314D02*
X16882338Y-14714838D01*
X16882338Y-14714838D02*
X16844243Y-14714838D01*
X16844243Y-14714838D02*
X16825196Y-14724362D01*
X16825196Y-14724362D02*
X16815672Y-14733886D01*
X16815672Y-14733886D02*
X16806148Y-14752933D01*
X16806148Y-14752933D02*
X16806148Y-14791028D01*
X16806148Y-14791028D02*
X16815672Y-14810076D01*
X16815672Y-14810076D02*
X16825196Y-14819600D01*
X16825196Y-14819600D02*
X16844243Y-14829124D01*
X16844243Y-14829124D02*
X16882338Y-14829124D01*
X16882338Y-14829124D02*
X16901386Y-14819600D01*
X16901386Y-14819600D02*
X16910910Y-14810076D01*
X16910910Y-14810076D02*
X16920434Y-14791028D01*
X16920434Y-14791028D02*
X16920434Y-14752933D01*
X16920434Y-14752933D02*
X16910910Y-14733886D01*
X16910910Y-14733886D02*
X16901386Y-14724362D01*
X16901386Y-14724362D02*
X16882338Y-14714838D01*
X17158529Y-14829124D02*
X17158529Y-14629124D01*
X17244243Y-14829124D02*
X17244243Y-14724362D01*
X17244243Y-14724362D02*
X17234719Y-14705314D01*
X17234719Y-14705314D02*
X17215672Y-14695790D01*
X17215672Y-14695790D02*
X17187100Y-14695790D01*
X17187100Y-14695790D02*
X17168053Y-14705314D01*
X17168053Y-14705314D02*
X17158529Y-14714838D01*
X17368053Y-14829124D02*
X17349005Y-14819600D01*
X17349005Y-14819600D02*
X17339481Y-14810076D01*
X17339481Y-14810076D02*
X17329958Y-14791028D01*
X17329958Y-14791028D02*
X17329958Y-14733886D01*
X17329958Y-14733886D02*
X17339481Y-14714838D01*
X17339481Y-14714838D02*
X17349005Y-14705314D01*
X17349005Y-14705314D02*
X17368053Y-14695790D01*
X17368053Y-14695790D02*
X17396624Y-14695790D01*
X17396624Y-14695790D02*
X17415672Y-14705314D01*
X17415672Y-14705314D02*
X17425196Y-14714838D01*
X17425196Y-14714838D02*
X17434719Y-14733886D01*
X17434719Y-14733886D02*
X17434719Y-14791028D01*
X17434719Y-14791028D02*
X17425196Y-14810076D01*
X17425196Y-14810076D02*
X17415672Y-14819600D01*
X17415672Y-14819600D02*
X17396624Y-14829124D01*
X17396624Y-14829124D02*
X17368053Y-14829124D01*
X17549005Y-14829124D02*
X17529958Y-14819600D01*
X17529958Y-14819600D02*
X17520434Y-14800552D01*
X17520434Y-14800552D02*
X17520434Y-14629124D01*
X17701386Y-14819600D02*
X17682339Y-14829124D01*
X17682339Y-14829124D02*
X17644243Y-14829124D01*
X17644243Y-14829124D02*
X17625196Y-14819600D01*
X17625196Y-14819600D02*
X17615672Y-14800552D01*
X17615672Y-14800552D02*
X17615672Y-14724362D01*
X17615672Y-14724362D02*
X17625196Y-14705314D01*
X17625196Y-14705314D02*
X17644243Y-14695790D01*
X17644243Y-14695790D02*
X17682339Y-14695790D01*
X17682339Y-14695790D02*
X17701386Y-14705314D01*
X17701386Y-14705314D02*
X17710910Y-14724362D01*
X17710910Y-14724362D02*
X17710910Y-14743409D01*
X17710910Y-14743409D02*
X17615672Y-14762457D01*
X17787100Y-14819600D02*
X17806148Y-14829124D01*
X17806148Y-14829124D02*
X17844243Y-14829124D01*
X17844243Y-14829124D02*
X17863291Y-14819600D01*
X17863291Y-14819600D02*
X17872815Y-14800552D01*
X17872815Y-14800552D02*
X17872815Y-14791028D01*
X17872815Y-14791028D02*
X17863291Y-14771981D01*
X17863291Y-14771981D02*
X17844243Y-14762457D01*
X17844243Y-14762457D02*
X17815672Y-14762457D01*
X17815672Y-14762457D02*
X17796624Y-14752933D01*
X17796624Y-14752933D02*
X17787100Y-14733886D01*
X17787100Y-14733886D02*
X17787100Y-14724362D01*
X17787100Y-14724362D02*
X17796624Y-14705314D01*
X17796624Y-14705314D02*
X17815672Y-14695790D01*
X17815672Y-14695790D02*
X17844243Y-14695790D01*
X17844243Y-14695790D02*
X17863291Y-14705314D01*
X17939481Y-14905314D02*
X17949005Y-14895790D01*
X17949005Y-14895790D02*
X17968053Y-14867219D01*
X17968053Y-14867219D02*
X17977577Y-14848171D01*
X17977577Y-14848171D02*
X17987100Y-14819600D01*
X17987100Y-14819600D02*
X17996624Y-14771981D01*
X17996624Y-14771981D02*
X17996624Y-14733886D01*
X17996624Y-14733886D02*
X17987100Y-14686267D01*
X17987100Y-14686267D02*
X17977577Y-14657695D01*
X17977577Y-14657695D02*
X17968053Y-14638648D01*
X17968053Y-14638648D02*
X17949005Y-14610076D01*
X17949005Y-14610076D02*
X17939481Y-14600552D01*
D14*
X12972163Y-15036663D02*
X12972163Y-14964537D01*
X12900037Y-14964537D01*
X12900037Y-15036663D01*
X12972163Y-15036663D01*
D11*
X13339481Y-15093124D02*
X13225195Y-15093124D01*
X13282338Y-15093124D02*
X13282338Y-14893124D01*
X13282338Y-14893124D02*
X13263290Y-14921695D01*
X13263290Y-14921695D02*
X13244243Y-14940743D01*
X13244243Y-14940743D02*
X13225195Y-14950267D01*
X13425195Y-15074076D02*
X13434719Y-15083600D01*
X13434719Y-15083600D02*
X13425195Y-15093124D01*
X13425195Y-15093124D02*
X13415671Y-15083600D01*
X13415671Y-15083600D02*
X13425195Y-15074076D01*
X13425195Y-15074076D02*
X13425195Y-15093124D01*
X13558528Y-14893124D02*
X13577576Y-14893124D01*
X13577576Y-14893124D02*
X13596624Y-14902648D01*
X13596624Y-14902648D02*
X13606148Y-14912171D01*
X13606148Y-14912171D02*
X13615671Y-14931219D01*
X13615671Y-14931219D02*
X13625195Y-14969314D01*
X13625195Y-14969314D02*
X13625195Y-15016933D01*
X13625195Y-15016933D02*
X13615671Y-15055028D01*
X13615671Y-15055028D02*
X13606148Y-15074076D01*
X13606148Y-15074076D02*
X13596624Y-15083600D01*
X13596624Y-15083600D02*
X13577576Y-15093124D01*
X13577576Y-15093124D02*
X13558528Y-15093124D01*
X13558528Y-15093124D02*
X13539481Y-15083600D01*
X13539481Y-15083600D02*
X13529957Y-15074076D01*
X13529957Y-15074076D02*
X13520433Y-15055028D01*
X13520433Y-15055028D02*
X13510909Y-15016933D01*
X13510909Y-15016933D02*
X13510909Y-14969314D01*
X13510909Y-14969314D02*
X13520433Y-14931219D01*
X13520433Y-14931219D02*
X13529957Y-14912171D01*
X13529957Y-14912171D02*
X13539481Y-14902648D01*
X13539481Y-14902648D02*
X13558528Y-14893124D01*
X13701386Y-14912171D02*
X13710909Y-14902648D01*
X13710909Y-14902648D02*
X13729957Y-14893124D01*
X13729957Y-14893124D02*
X13777576Y-14893124D01*
X13777576Y-14893124D02*
X13796624Y-14902648D01*
X13796624Y-14902648D02*
X13806148Y-14912171D01*
X13806148Y-14912171D02*
X13815671Y-14931219D01*
X13815671Y-14931219D02*
X13815671Y-14950267D01*
X13815671Y-14950267D02*
X13806148Y-14978838D01*
X13806148Y-14978838D02*
X13691862Y-15093124D01*
X13691862Y-15093124D02*
X13815671Y-15093124D01*
X13939481Y-14893124D02*
X13958529Y-14893124D01*
X13958529Y-14893124D02*
X13977576Y-14902648D01*
X13977576Y-14902648D02*
X13987100Y-14912171D01*
X13987100Y-14912171D02*
X13996624Y-14931219D01*
X13996624Y-14931219D02*
X14006148Y-14969314D01*
X14006148Y-14969314D02*
X14006148Y-15016933D01*
X14006148Y-15016933D02*
X13996624Y-15055028D01*
X13996624Y-15055028D02*
X13987100Y-15074076D01*
X13987100Y-15074076D02*
X13977576Y-15083600D01*
X13977576Y-15083600D02*
X13958529Y-15093124D01*
X13958529Y-15093124D02*
X13939481Y-15093124D01*
X13939481Y-15093124D02*
X13920433Y-15083600D01*
X13920433Y-15083600D02*
X13910909Y-15074076D01*
X13910909Y-15074076D02*
X13901386Y-15055028D01*
X13901386Y-15055028D02*
X13891862Y-15016933D01*
X13891862Y-15016933D02*
X13891862Y-14969314D01*
X13891862Y-14969314D02*
X13901386Y-14931219D01*
X13901386Y-14931219D02*
X13910909Y-14912171D01*
X13910909Y-14912171D02*
X13920433Y-14902648D01*
X13920433Y-14902648D02*
X13939481Y-14893124D01*
X14091862Y-15093124D02*
X14091862Y-14959790D01*
X14091862Y-14978838D02*
X14101386Y-14969314D01*
X14101386Y-14969314D02*
X14120433Y-14959790D01*
X14120433Y-14959790D02*
X14149005Y-14959790D01*
X14149005Y-14959790D02*
X14168052Y-14969314D01*
X14168052Y-14969314D02*
X14177576Y-14988362D01*
X14177576Y-14988362D02*
X14177576Y-15093124D01*
X14177576Y-14988362D02*
X14187100Y-14969314D01*
X14187100Y-14969314D02*
X14206148Y-14959790D01*
X14206148Y-14959790D02*
X14234719Y-14959790D01*
X14234719Y-14959790D02*
X14253767Y-14969314D01*
X14253767Y-14969314D02*
X14263290Y-14988362D01*
X14263290Y-14988362D02*
X14263290Y-15093124D01*
X14358529Y-15093124D02*
X14358529Y-14959790D01*
X14358529Y-14978838D02*
X14368052Y-14969314D01*
X14368052Y-14969314D02*
X14387100Y-14959790D01*
X14387100Y-14959790D02*
X14415671Y-14959790D01*
X14415671Y-14959790D02*
X14434719Y-14969314D01*
X14434719Y-14969314D02*
X14444243Y-14988362D01*
X14444243Y-14988362D02*
X14444243Y-15093124D01*
X14444243Y-14988362D02*
X14453767Y-14969314D01*
X14453767Y-14969314D02*
X14472814Y-14959790D01*
X14472814Y-14959790D02*
X14501386Y-14959790D01*
X14501386Y-14959790D02*
X14520433Y-14969314D01*
X14520433Y-14969314D02*
X14529957Y-14988362D01*
X14529957Y-14988362D02*
X14529957Y-15093124D01*
X14920433Y-14883600D02*
X14749005Y-15140743D01*
X15177576Y-14893124D02*
X15196624Y-14893124D01*
X15196624Y-14893124D02*
X15215672Y-14902648D01*
X15215672Y-14902648D02*
X15225195Y-14912171D01*
X15225195Y-14912171D02*
X15234719Y-14931219D01*
X15234719Y-14931219D02*
X15244243Y-14969314D01*
X15244243Y-14969314D02*
X15244243Y-15016933D01*
X15244243Y-15016933D02*
X15234719Y-15055028D01*
X15234719Y-15055028D02*
X15225195Y-15074076D01*
X15225195Y-15074076D02*
X15215672Y-15083600D01*
X15215672Y-15083600D02*
X15196624Y-15093124D01*
X15196624Y-15093124D02*
X15177576Y-15093124D01*
X15177576Y-15093124D02*
X15158529Y-15083600D01*
X15158529Y-15083600D02*
X15149005Y-15074076D01*
X15149005Y-15074076D02*
X15139481Y-15055028D01*
X15139481Y-15055028D02*
X15129957Y-15016933D01*
X15129957Y-15016933D02*
X15129957Y-14969314D01*
X15129957Y-14969314D02*
X15139481Y-14931219D01*
X15139481Y-14931219D02*
X15149005Y-14912171D01*
X15149005Y-14912171D02*
X15158529Y-14902648D01*
X15158529Y-14902648D02*
X15177576Y-14893124D01*
X15329957Y-15074076D02*
X15339481Y-15083600D01*
X15339481Y-15083600D02*
X15329957Y-15093124D01*
X15329957Y-15093124D02*
X15320433Y-15083600D01*
X15320433Y-15083600D02*
X15329957Y-15074076D01*
X15329957Y-15074076D02*
X15329957Y-15093124D01*
X15463291Y-14893124D02*
X15482338Y-14893124D01*
X15482338Y-14893124D02*
X15501386Y-14902648D01*
X15501386Y-14902648D02*
X15510910Y-14912171D01*
X15510910Y-14912171D02*
X15520433Y-14931219D01*
X15520433Y-14931219D02*
X15529957Y-14969314D01*
X15529957Y-14969314D02*
X15529957Y-15016933D01*
X15529957Y-15016933D02*
X15520433Y-15055028D01*
X15520433Y-15055028D02*
X15510910Y-15074076D01*
X15510910Y-15074076D02*
X15501386Y-15083600D01*
X15501386Y-15083600D02*
X15482338Y-15093124D01*
X15482338Y-15093124D02*
X15463291Y-15093124D01*
X15463291Y-15093124D02*
X15444243Y-15083600D01*
X15444243Y-15083600D02*
X15434719Y-15074076D01*
X15434719Y-15074076D02*
X15425195Y-15055028D01*
X15425195Y-15055028D02*
X15415672Y-15016933D01*
X15415672Y-15016933D02*
X15415672Y-14969314D01*
X15415672Y-14969314D02*
X15425195Y-14931219D01*
X15425195Y-14931219D02*
X15434719Y-14912171D01*
X15434719Y-14912171D02*
X15444243Y-14902648D01*
X15444243Y-14902648D02*
X15463291Y-14893124D01*
X15701386Y-14959790D02*
X15701386Y-15093124D01*
X15653767Y-14883600D02*
X15606148Y-15026457D01*
X15606148Y-15026457D02*
X15729957Y-15026457D01*
X15844243Y-14893124D02*
X15863291Y-14893124D01*
X15863291Y-14893124D02*
X15882338Y-14902648D01*
X15882338Y-14902648D02*
X15891862Y-14912171D01*
X15891862Y-14912171D02*
X15901386Y-14931219D01*
X15901386Y-14931219D02*
X15910910Y-14969314D01*
X15910910Y-14969314D02*
X15910910Y-15016933D01*
X15910910Y-15016933D02*
X15901386Y-15055028D01*
X15901386Y-15055028D02*
X15891862Y-15074076D01*
X15891862Y-15074076D02*
X15882338Y-15083600D01*
X15882338Y-15083600D02*
X15863291Y-15093124D01*
X15863291Y-15093124D02*
X15844243Y-15093124D01*
X15844243Y-15093124D02*
X15825195Y-15083600D01*
X15825195Y-15083600D02*
X15815672Y-15074076D01*
X15815672Y-15074076D02*
X15806148Y-15055028D01*
X15806148Y-15055028D02*
X15796624Y-15016933D01*
X15796624Y-15016933D02*
X15796624Y-14969314D01*
X15796624Y-14969314D02*
X15806148Y-14931219D01*
X15806148Y-14931219D02*
X15815672Y-14912171D01*
X15815672Y-14912171D02*
X15825195Y-14902648D01*
X15825195Y-14902648D02*
X15844243Y-14893124D01*
X15987100Y-14912171D02*
X15996624Y-14902648D01*
X15996624Y-14902648D02*
X16015672Y-14893124D01*
X16015672Y-14893124D02*
X16063291Y-14893124D01*
X16063291Y-14893124D02*
X16082338Y-14902648D01*
X16082338Y-14902648D02*
X16091862Y-14912171D01*
X16091862Y-14912171D02*
X16101386Y-14931219D01*
X16101386Y-14931219D02*
X16101386Y-14950267D01*
X16101386Y-14950267D02*
X16091862Y-14978838D01*
X16091862Y-14978838D02*
X15977576Y-15093124D01*
X15977576Y-15093124D02*
X16101386Y-15093124D01*
X16177576Y-14893124D02*
X16177576Y-14931219D01*
X16253767Y-14893124D02*
X16253767Y-14931219D01*
X16549005Y-15169314D02*
X16539481Y-15159790D01*
X16539481Y-15159790D02*
X16520434Y-15131219D01*
X16520434Y-15131219D02*
X16510910Y-15112171D01*
X16510910Y-15112171D02*
X16501386Y-15083600D01*
X16501386Y-15083600D02*
X16491862Y-15035981D01*
X16491862Y-15035981D02*
X16491862Y-14997886D01*
X16491862Y-14997886D02*
X16501386Y-14950267D01*
X16501386Y-14950267D02*
X16510910Y-14921695D01*
X16510910Y-14921695D02*
X16520434Y-14902648D01*
X16520434Y-14902648D02*
X16539481Y-14874076D01*
X16539481Y-14874076D02*
X16549005Y-14864552D01*
X16606148Y-14893124D02*
X16729957Y-14893124D01*
X16729957Y-14893124D02*
X16663291Y-14969314D01*
X16663291Y-14969314D02*
X16691862Y-14969314D01*
X16691862Y-14969314D02*
X16710910Y-14978838D01*
X16710910Y-14978838D02*
X16720434Y-14988362D01*
X16720434Y-14988362D02*
X16729957Y-15007409D01*
X16729957Y-15007409D02*
X16729957Y-15055028D01*
X16729957Y-15055028D02*
X16720434Y-15074076D01*
X16720434Y-15074076D02*
X16710910Y-15083600D01*
X16710910Y-15083600D02*
X16691862Y-15093124D01*
X16691862Y-15093124D02*
X16634719Y-15093124D01*
X16634719Y-15093124D02*
X16615672Y-15083600D01*
X16615672Y-15083600D02*
X16606148Y-15074076D01*
X16825196Y-15093124D02*
X16863291Y-15093124D01*
X16863291Y-15093124D02*
X16882338Y-15083600D01*
X16882338Y-15083600D02*
X16891862Y-15074076D01*
X16891862Y-15074076D02*
X16910910Y-15045505D01*
X16910910Y-15045505D02*
X16920434Y-15007409D01*
X16920434Y-15007409D02*
X16920434Y-14931219D01*
X16920434Y-14931219D02*
X16910910Y-14912171D01*
X16910910Y-14912171D02*
X16901386Y-14902648D01*
X16901386Y-14902648D02*
X16882338Y-14893124D01*
X16882338Y-14893124D02*
X16844243Y-14893124D01*
X16844243Y-14893124D02*
X16825196Y-14902648D01*
X16825196Y-14902648D02*
X16815672Y-14912171D01*
X16815672Y-14912171D02*
X16806148Y-14931219D01*
X16806148Y-14931219D02*
X16806148Y-14978838D01*
X16806148Y-14978838D02*
X16815672Y-14997886D01*
X16815672Y-14997886D02*
X16825196Y-15007409D01*
X16825196Y-15007409D02*
X16844243Y-15016933D01*
X16844243Y-15016933D02*
X16882338Y-15016933D01*
X16882338Y-15016933D02*
X16901386Y-15007409D01*
X16901386Y-15007409D02*
X16910910Y-14997886D01*
X16910910Y-14997886D02*
X16920434Y-14978838D01*
X17158529Y-15093124D02*
X17158529Y-14893124D01*
X17244243Y-15093124D02*
X17244243Y-14988362D01*
X17244243Y-14988362D02*
X17234719Y-14969314D01*
X17234719Y-14969314D02*
X17215672Y-14959790D01*
X17215672Y-14959790D02*
X17187100Y-14959790D01*
X17187100Y-14959790D02*
X17168053Y-14969314D01*
X17168053Y-14969314D02*
X17158529Y-14978838D01*
X17368053Y-15093124D02*
X17349005Y-15083600D01*
X17349005Y-15083600D02*
X17339481Y-15074076D01*
X17339481Y-15074076D02*
X17329958Y-15055028D01*
X17329958Y-15055028D02*
X17329958Y-14997886D01*
X17329958Y-14997886D02*
X17339481Y-14978838D01*
X17339481Y-14978838D02*
X17349005Y-14969314D01*
X17349005Y-14969314D02*
X17368053Y-14959790D01*
X17368053Y-14959790D02*
X17396624Y-14959790D01*
X17396624Y-14959790D02*
X17415672Y-14969314D01*
X17415672Y-14969314D02*
X17425196Y-14978838D01*
X17425196Y-14978838D02*
X17434719Y-14997886D01*
X17434719Y-14997886D02*
X17434719Y-15055028D01*
X17434719Y-15055028D02*
X17425196Y-15074076D01*
X17425196Y-15074076D02*
X17415672Y-15083600D01*
X17415672Y-15083600D02*
X17396624Y-15093124D01*
X17396624Y-15093124D02*
X17368053Y-15093124D01*
X17549005Y-15093124D02*
X17529958Y-15083600D01*
X17529958Y-15083600D02*
X17520434Y-15064552D01*
X17520434Y-15064552D02*
X17520434Y-14893124D01*
X17701386Y-15083600D02*
X17682339Y-15093124D01*
X17682339Y-15093124D02*
X17644243Y-15093124D01*
X17644243Y-15093124D02*
X17625196Y-15083600D01*
X17625196Y-15083600D02*
X17615672Y-15064552D01*
X17615672Y-15064552D02*
X17615672Y-14988362D01*
X17615672Y-14988362D02*
X17625196Y-14969314D01*
X17625196Y-14969314D02*
X17644243Y-14959790D01*
X17644243Y-14959790D02*
X17682339Y-14959790D01*
X17682339Y-14959790D02*
X17701386Y-14969314D01*
X17701386Y-14969314D02*
X17710910Y-14988362D01*
X17710910Y-14988362D02*
X17710910Y-15007409D01*
X17710910Y-15007409D02*
X17615672Y-15026457D01*
X17787100Y-15083600D02*
X17806148Y-15093124D01*
X17806148Y-15093124D02*
X17844243Y-15093124D01*
X17844243Y-15093124D02*
X17863291Y-15083600D01*
X17863291Y-15083600D02*
X17872815Y-15064552D01*
X17872815Y-15064552D02*
X17872815Y-15055028D01*
X17872815Y-15055028D02*
X17863291Y-15035981D01*
X17863291Y-15035981D02*
X17844243Y-15026457D01*
X17844243Y-15026457D02*
X17815672Y-15026457D01*
X17815672Y-15026457D02*
X17796624Y-15016933D01*
X17796624Y-15016933D02*
X17787100Y-14997886D01*
X17787100Y-14997886D02*
X17787100Y-14988362D01*
X17787100Y-14988362D02*
X17796624Y-14969314D01*
X17796624Y-14969314D02*
X17815672Y-14959790D01*
X17815672Y-14959790D02*
X17844243Y-14959790D01*
X17844243Y-14959790D02*
X17863291Y-14969314D01*
X17939481Y-15169314D02*
X17949005Y-15159790D01*
X17949005Y-15159790D02*
X17968053Y-15131219D01*
X17968053Y-15131219D02*
X17977577Y-15112171D01*
X17977577Y-15112171D02*
X17987100Y-15083600D01*
X17987100Y-15083600D02*
X17996624Y-15035981D01*
X17996624Y-15035981D02*
X17996624Y-14997886D01*
X17996624Y-14997886D02*
X17987100Y-14950267D01*
X17987100Y-14950267D02*
X17977577Y-14921695D01*
X17977577Y-14921695D02*
X17968053Y-14902648D01*
X17968053Y-14902648D02*
X17949005Y-14874076D01*
X17949005Y-14874076D02*
X17939481Y-14864552D01*
D15*
X12922100Y-15329600D02*
X12987100Y-15264600D01*
X12922100Y-15199600D01*
X12857100Y-15264600D01*
X12922100Y-15329600D01*
D11*
X13339481Y-15357124D02*
X13225195Y-15357124D01*
X13282338Y-15357124D02*
X13282338Y-15157124D01*
X13282338Y-15157124D02*
X13263290Y-15185695D01*
X13263290Y-15185695D02*
X13244243Y-15204743D01*
X13244243Y-15204743D02*
X13225195Y-15214267D01*
X13425195Y-15338076D02*
X13434719Y-15347600D01*
X13434719Y-15347600D02*
X13425195Y-15357124D01*
X13425195Y-15357124D02*
X13415671Y-15347600D01*
X13415671Y-15347600D02*
X13425195Y-15338076D01*
X13425195Y-15338076D02*
X13425195Y-15357124D01*
X13501386Y-15157124D02*
X13625195Y-15157124D01*
X13625195Y-15157124D02*
X13558528Y-15233314D01*
X13558528Y-15233314D02*
X13587100Y-15233314D01*
X13587100Y-15233314D02*
X13606148Y-15242838D01*
X13606148Y-15242838D02*
X13615671Y-15252362D01*
X13615671Y-15252362D02*
X13625195Y-15271409D01*
X13625195Y-15271409D02*
X13625195Y-15319028D01*
X13625195Y-15319028D02*
X13615671Y-15338076D01*
X13615671Y-15338076D02*
X13606148Y-15347600D01*
X13606148Y-15347600D02*
X13587100Y-15357124D01*
X13587100Y-15357124D02*
X13529957Y-15357124D01*
X13529957Y-15357124D02*
X13510909Y-15347600D01*
X13510909Y-15347600D02*
X13501386Y-15338076D01*
X13749005Y-15157124D02*
X13768052Y-15157124D01*
X13768052Y-15157124D02*
X13787100Y-15166648D01*
X13787100Y-15166648D02*
X13796624Y-15176171D01*
X13796624Y-15176171D02*
X13806148Y-15195219D01*
X13806148Y-15195219D02*
X13815671Y-15233314D01*
X13815671Y-15233314D02*
X13815671Y-15280933D01*
X13815671Y-15280933D02*
X13806148Y-15319028D01*
X13806148Y-15319028D02*
X13796624Y-15338076D01*
X13796624Y-15338076D02*
X13787100Y-15347600D01*
X13787100Y-15347600D02*
X13768052Y-15357124D01*
X13768052Y-15357124D02*
X13749005Y-15357124D01*
X13749005Y-15357124D02*
X13729957Y-15347600D01*
X13729957Y-15347600D02*
X13720433Y-15338076D01*
X13720433Y-15338076D02*
X13710909Y-15319028D01*
X13710909Y-15319028D02*
X13701386Y-15280933D01*
X13701386Y-15280933D02*
X13701386Y-15233314D01*
X13701386Y-15233314D02*
X13710909Y-15195219D01*
X13710909Y-15195219D02*
X13720433Y-15176171D01*
X13720433Y-15176171D02*
X13729957Y-15166648D01*
X13729957Y-15166648D02*
X13749005Y-15157124D01*
X13939481Y-15157124D02*
X13958529Y-15157124D01*
X13958529Y-15157124D02*
X13977576Y-15166648D01*
X13977576Y-15166648D02*
X13987100Y-15176171D01*
X13987100Y-15176171D02*
X13996624Y-15195219D01*
X13996624Y-15195219D02*
X14006148Y-15233314D01*
X14006148Y-15233314D02*
X14006148Y-15280933D01*
X14006148Y-15280933D02*
X13996624Y-15319028D01*
X13996624Y-15319028D02*
X13987100Y-15338076D01*
X13987100Y-15338076D02*
X13977576Y-15347600D01*
X13977576Y-15347600D02*
X13958529Y-15357124D01*
X13958529Y-15357124D02*
X13939481Y-15357124D01*
X13939481Y-15357124D02*
X13920433Y-15347600D01*
X13920433Y-15347600D02*
X13910909Y-15338076D01*
X13910909Y-15338076D02*
X13901386Y-15319028D01*
X13901386Y-15319028D02*
X13891862Y-15280933D01*
X13891862Y-15280933D02*
X13891862Y-15233314D01*
X13891862Y-15233314D02*
X13901386Y-15195219D01*
X13901386Y-15195219D02*
X13910909Y-15176171D01*
X13910909Y-15176171D02*
X13920433Y-15166648D01*
X13920433Y-15166648D02*
X13939481Y-15157124D01*
X14091862Y-15357124D02*
X14091862Y-15223790D01*
X14091862Y-15242838D02*
X14101386Y-15233314D01*
X14101386Y-15233314D02*
X14120433Y-15223790D01*
X14120433Y-15223790D02*
X14149005Y-15223790D01*
X14149005Y-15223790D02*
X14168052Y-15233314D01*
X14168052Y-15233314D02*
X14177576Y-15252362D01*
X14177576Y-15252362D02*
X14177576Y-15357124D01*
X14177576Y-15252362D02*
X14187100Y-15233314D01*
X14187100Y-15233314D02*
X14206148Y-15223790D01*
X14206148Y-15223790D02*
X14234719Y-15223790D01*
X14234719Y-15223790D02*
X14253767Y-15233314D01*
X14253767Y-15233314D02*
X14263290Y-15252362D01*
X14263290Y-15252362D02*
X14263290Y-15357124D01*
X14358529Y-15357124D02*
X14358529Y-15223790D01*
X14358529Y-15242838D02*
X14368052Y-15233314D01*
X14368052Y-15233314D02*
X14387100Y-15223790D01*
X14387100Y-15223790D02*
X14415671Y-15223790D01*
X14415671Y-15223790D02*
X14434719Y-15233314D01*
X14434719Y-15233314D02*
X14444243Y-15252362D01*
X14444243Y-15252362D02*
X14444243Y-15357124D01*
X14444243Y-15252362D02*
X14453767Y-15233314D01*
X14453767Y-15233314D02*
X14472814Y-15223790D01*
X14472814Y-15223790D02*
X14501386Y-15223790D01*
X14501386Y-15223790D02*
X14520433Y-15233314D01*
X14520433Y-15233314D02*
X14529957Y-15252362D01*
X14529957Y-15252362D02*
X14529957Y-15357124D01*
X14920433Y-15147600D02*
X14749005Y-15404743D01*
X15177576Y-15157124D02*
X15196624Y-15157124D01*
X15196624Y-15157124D02*
X15215672Y-15166648D01*
X15215672Y-15166648D02*
X15225195Y-15176171D01*
X15225195Y-15176171D02*
X15234719Y-15195219D01*
X15234719Y-15195219D02*
X15244243Y-15233314D01*
X15244243Y-15233314D02*
X15244243Y-15280933D01*
X15244243Y-15280933D02*
X15234719Y-15319028D01*
X15234719Y-15319028D02*
X15225195Y-15338076D01*
X15225195Y-15338076D02*
X15215672Y-15347600D01*
X15215672Y-15347600D02*
X15196624Y-15357124D01*
X15196624Y-15357124D02*
X15177576Y-15357124D01*
X15177576Y-15357124D02*
X15158529Y-15347600D01*
X15158529Y-15347600D02*
X15149005Y-15338076D01*
X15149005Y-15338076D02*
X15139481Y-15319028D01*
X15139481Y-15319028D02*
X15129957Y-15280933D01*
X15129957Y-15280933D02*
X15129957Y-15233314D01*
X15129957Y-15233314D02*
X15139481Y-15195219D01*
X15139481Y-15195219D02*
X15149005Y-15176171D01*
X15149005Y-15176171D02*
X15158529Y-15166648D01*
X15158529Y-15166648D02*
X15177576Y-15157124D01*
X15329957Y-15338076D02*
X15339481Y-15347600D01*
X15339481Y-15347600D02*
X15329957Y-15357124D01*
X15329957Y-15357124D02*
X15320433Y-15347600D01*
X15320433Y-15347600D02*
X15329957Y-15338076D01*
X15329957Y-15338076D02*
X15329957Y-15357124D01*
X15463291Y-15157124D02*
X15482338Y-15157124D01*
X15482338Y-15157124D02*
X15501386Y-15166648D01*
X15501386Y-15166648D02*
X15510910Y-15176171D01*
X15510910Y-15176171D02*
X15520433Y-15195219D01*
X15520433Y-15195219D02*
X15529957Y-15233314D01*
X15529957Y-15233314D02*
X15529957Y-15280933D01*
X15529957Y-15280933D02*
X15520433Y-15319028D01*
X15520433Y-15319028D02*
X15510910Y-15338076D01*
X15510910Y-15338076D02*
X15501386Y-15347600D01*
X15501386Y-15347600D02*
X15482338Y-15357124D01*
X15482338Y-15357124D02*
X15463291Y-15357124D01*
X15463291Y-15357124D02*
X15444243Y-15347600D01*
X15444243Y-15347600D02*
X15434719Y-15338076D01*
X15434719Y-15338076D02*
X15425195Y-15319028D01*
X15425195Y-15319028D02*
X15415672Y-15280933D01*
X15415672Y-15280933D02*
X15415672Y-15233314D01*
X15415672Y-15233314D02*
X15425195Y-15195219D01*
X15425195Y-15195219D02*
X15434719Y-15176171D01*
X15434719Y-15176171D02*
X15444243Y-15166648D01*
X15444243Y-15166648D02*
X15463291Y-15157124D01*
X15710910Y-15157124D02*
X15615672Y-15157124D01*
X15615672Y-15157124D02*
X15606148Y-15252362D01*
X15606148Y-15252362D02*
X15615672Y-15242838D01*
X15615672Y-15242838D02*
X15634719Y-15233314D01*
X15634719Y-15233314D02*
X15682338Y-15233314D01*
X15682338Y-15233314D02*
X15701386Y-15242838D01*
X15701386Y-15242838D02*
X15710910Y-15252362D01*
X15710910Y-15252362D02*
X15720433Y-15271409D01*
X15720433Y-15271409D02*
X15720433Y-15319028D01*
X15720433Y-15319028D02*
X15710910Y-15338076D01*
X15710910Y-15338076D02*
X15701386Y-15347600D01*
X15701386Y-15347600D02*
X15682338Y-15357124D01*
X15682338Y-15357124D02*
X15634719Y-15357124D01*
X15634719Y-15357124D02*
X15615672Y-15347600D01*
X15615672Y-15347600D02*
X15606148Y-15338076D01*
X15910910Y-15357124D02*
X15796624Y-15357124D01*
X15853767Y-15357124D02*
X15853767Y-15157124D01*
X15853767Y-15157124D02*
X15834719Y-15185695D01*
X15834719Y-15185695D02*
X15815672Y-15204743D01*
X15815672Y-15204743D02*
X15796624Y-15214267D01*
X15987100Y-15176171D02*
X15996624Y-15166648D01*
X15996624Y-15166648D02*
X16015672Y-15157124D01*
X16015672Y-15157124D02*
X16063291Y-15157124D01*
X16063291Y-15157124D02*
X16082338Y-15166648D01*
X16082338Y-15166648D02*
X16091862Y-15176171D01*
X16091862Y-15176171D02*
X16101386Y-15195219D01*
X16101386Y-15195219D02*
X16101386Y-15214267D01*
X16101386Y-15214267D02*
X16091862Y-15242838D01*
X16091862Y-15242838D02*
X15977576Y-15357124D01*
X15977576Y-15357124D02*
X16101386Y-15357124D01*
X16177576Y-15157124D02*
X16177576Y-15195219D01*
X16253767Y-15157124D02*
X16253767Y-15195219D01*
X16549005Y-15433314D02*
X16539481Y-15423790D01*
X16539481Y-15423790D02*
X16520434Y-15395219D01*
X16520434Y-15395219D02*
X16510910Y-15376171D01*
X16510910Y-15376171D02*
X16501386Y-15347600D01*
X16501386Y-15347600D02*
X16491862Y-15299981D01*
X16491862Y-15299981D02*
X16491862Y-15261886D01*
X16491862Y-15261886D02*
X16501386Y-15214267D01*
X16501386Y-15214267D02*
X16510910Y-15185695D01*
X16510910Y-15185695D02*
X16520434Y-15166648D01*
X16520434Y-15166648D02*
X16539481Y-15138076D01*
X16539481Y-15138076D02*
X16549005Y-15128552D01*
X16615672Y-15176171D02*
X16625195Y-15166648D01*
X16625195Y-15166648D02*
X16644243Y-15157124D01*
X16644243Y-15157124D02*
X16691862Y-15157124D01*
X16691862Y-15157124D02*
X16710910Y-15166648D01*
X16710910Y-15166648D02*
X16720434Y-15176171D01*
X16720434Y-15176171D02*
X16729957Y-15195219D01*
X16729957Y-15195219D02*
X16729957Y-15214267D01*
X16729957Y-15214267D02*
X16720434Y-15242838D01*
X16720434Y-15242838D02*
X16606148Y-15357124D01*
X16606148Y-15357124D02*
X16729957Y-15357124D01*
X16968053Y-15357124D02*
X16968053Y-15157124D01*
X17053767Y-15357124D02*
X17053767Y-15252362D01*
X17053767Y-15252362D02*
X17044243Y-15233314D01*
X17044243Y-15233314D02*
X17025196Y-15223790D01*
X17025196Y-15223790D02*
X16996624Y-15223790D01*
X16996624Y-15223790D02*
X16977577Y-15233314D01*
X16977577Y-15233314D02*
X16968053Y-15242838D01*
X17177577Y-15357124D02*
X17158529Y-15347600D01*
X17158529Y-15347600D02*
X17149005Y-15338076D01*
X17149005Y-15338076D02*
X17139481Y-15319028D01*
X17139481Y-15319028D02*
X17139481Y-15261886D01*
X17139481Y-15261886D02*
X17149005Y-15242838D01*
X17149005Y-15242838D02*
X17158529Y-15233314D01*
X17158529Y-15233314D02*
X17177577Y-15223790D01*
X17177577Y-15223790D02*
X17206148Y-15223790D01*
X17206148Y-15223790D02*
X17225196Y-15233314D01*
X17225196Y-15233314D02*
X17234719Y-15242838D01*
X17234719Y-15242838D02*
X17244243Y-15261886D01*
X17244243Y-15261886D02*
X17244243Y-15319028D01*
X17244243Y-15319028D02*
X17234719Y-15338076D01*
X17234719Y-15338076D02*
X17225196Y-15347600D01*
X17225196Y-15347600D02*
X17206148Y-15357124D01*
X17206148Y-15357124D02*
X17177577Y-15357124D01*
X17358529Y-15357124D02*
X17339481Y-15347600D01*
X17339481Y-15347600D02*
X17329958Y-15328552D01*
X17329958Y-15328552D02*
X17329958Y-15157124D01*
X17510910Y-15347600D02*
X17491862Y-15357124D01*
X17491862Y-15357124D02*
X17453767Y-15357124D01*
X17453767Y-15357124D02*
X17434719Y-15347600D01*
X17434719Y-15347600D02*
X17425196Y-15328552D01*
X17425196Y-15328552D02*
X17425196Y-15252362D01*
X17425196Y-15252362D02*
X17434719Y-15233314D01*
X17434719Y-15233314D02*
X17453767Y-15223790D01*
X17453767Y-15223790D02*
X17491862Y-15223790D01*
X17491862Y-15223790D02*
X17510910Y-15233314D01*
X17510910Y-15233314D02*
X17520434Y-15252362D01*
X17520434Y-15252362D02*
X17520434Y-15271409D01*
X17520434Y-15271409D02*
X17425196Y-15290457D01*
X17596624Y-15347600D02*
X17615672Y-15357124D01*
X17615672Y-15357124D02*
X17653767Y-15357124D01*
X17653767Y-15357124D02*
X17672815Y-15347600D01*
X17672815Y-15347600D02*
X17682339Y-15328552D01*
X17682339Y-15328552D02*
X17682339Y-15319028D01*
X17682339Y-15319028D02*
X17672815Y-15299981D01*
X17672815Y-15299981D02*
X17653767Y-15290457D01*
X17653767Y-15290457D02*
X17625196Y-15290457D01*
X17625196Y-15290457D02*
X17606148Y-15280933D01*
X17606148Y-15280933D02*
X17596624Y-15261886D01*
X17596624Y-15261886D02*
X17596624Y-15252362D01*
X17596624Y-15252362D02*
X17606148Y-15233314D01*
X17606148Y-15233314D02*
X17625196Y-15223790D01*
X17625196Y-15223790D02*
X17653767Y-15223790D01*
X17653767Y-15223790D02*
X17672815Y-15233314D01*
X17749005Y-15433314D02*
X17758529Y-15423790D01*
X17758529Y-15423790D02*
X17777577Y-15395219D01*
X17777577Y-15395219D02*
X17787100Y-15376171D01*
X17787100Y-15376171D02*
X17796624Y-15347600D01*
X17796624Y-15347600D02*
X17806148Y-15299981D01*
X17806148Y-15299981D02*
X17806148Y-15261886D01*
X17806148Y-15261886D02*
X17796624Y-15214267D01*
X17796624Y-15214267D02*
X17787100Y-15185695D01*
X17787100Y-15185695D02*
X17777577Y-15166648D01*
X17777577Y-15166648D02*
X17758529Y-15138076D01*
X17758529Y-15138076D02*
X17749005Y-15128552D01*
M02*
